<svg version="1.1" id="Layer_1" xmlns="http://www.w3.org/2000/svg" xmlns:xlink="http://www.w3.org/1999/xlink" x="0px" y="0px"
	 width="100%" viewBox="0 0 500 500" enable-background="new 0 0 500 500" xml:space="preserve">
<path fill="#FFFFFF" opacity="1.000000" stroke="none" 
	d="
M292.000000,501.000000 
	C194.666687,501.000000 97.833382,501.000000 1.000052,501.000000 
	C1.000035,334.333405 1.000035,167.666794 1.000017,1.000141 
	C167.666565,1.000094 334.333130,1.000094 500.999756,1.000047 
	C500.999847,167.666519 500.999847,334.333038 500.999939,500.999786 
	C431.500000,501.000000 362.000000,501.000000 292.000000,501.000000 
M97.418678,107.026428 
	C97.254135,107.338043 97.089592,107.649658 96.997955,107.997627 
	C96.997955,107.997627 96.938698,107.941689 96.283417,108.189583 
	C95.807961,109.111397 95.332504,110.033218 94.949738,110.951569 
	C94.949738,110.951569 94.924843,110.862213 94.352890,110.478752 
	C93.815369,111.437653 93.277855,112.396561 91.927704,113.904572 
	C86.591545,121.214424 81.255379,128.524292 75.311096,136.175827 
	C72.910263,140.176987 70.298965,144.068924 68.153648,148.202667 
	C64.042671,156.124008 60.138714,164.155121 56.285168,172.205933 
	C55.434494,173.983185 55.151363,176.032104 54.166328,178.520889 
	C51.891953,185.388565 49.275723,192.167221 47.456627,199.153442 
	C46.118233,204.293518 45.822544,209.705093 44.660896,215.599243 
	C43.711414,221.861389 42.359406,228.095688 41.923973,234.393372 
	C41.475197,240.883987 41.907036,247.436478 41.977722,253.961609 
	C42.010365,256.974548 42.100456,259.986877 42.039589,263.728577 
	C42.120422,267.113312 41.866642,270.546631 42.349949,273.872894 
	C43.442562,281.392517 44.673103,288.908447 46.287331,296.330200 
	C47.356487,301.245880 49.187763,305.995758 50.191830,311.278107 
	C53.247105,319.029388 56.871754,326.612946 59.217194,334.573364 
	C62.326183,345.125305 68.642845,353.629272 74.930038,362.998779 
	C83.721542,374.518829 92.465897,386.075562 101.368996,397.508728 
	C102.390511,398.820557 104.298439,399.442139 106.117218,400.950348 
	C113.795105,408.418732 121.895180,415.366882 131.310059,421.694061 
	C136.555756,425.098999 141.801453,428.503937 147.039383,432.638000 
	C170.450836,445.771332 195.435349,454.296722 221.898041,458.892548 
	C216.762772,465.073212 211.627487,471.253906 206.492218,477.434570 
	C206.808121,477.954773 207.124008,478.474945 207.439911,478.995117 
	C217.628510,478.995117 227.817093,478.995117 238.930878,478.995544 
	C242.958496,478.984741 246.986099,478.973938 251.945572,478.982117 
	C256.971649,478.968536 261.997711,478.954987 267.952759,478.971436 
	C272.640747,478.954987 277.328705,478.938568 282.928741,478.975464 
	C286.292999,478.949738 289.657257,478.924042 293.942474,478.960663 
	C297.969330,478.933197 301.996155,478.905731 306.932587,478.958801 
	C310.295654,478.926575 313.658722,478.894318 317.924072,478.948700 
	C320.955505,478.917114 323.986938,478.885529 327.901123,478.949738 
	C330.269897,478.918427 332.638641,478.887115 335.804565,478.961823 
	C336.874054,478.923004 337.943542,478.884155 339.865021,478.952545 
	C341.580383,478.916260 343.295776,478.879944 345.862122,478.957092 
	C347.577789,478.919006 349.293488,478.880890 351.835876,478.971863 
	C353.227478,478.927399 354.619080,478.882935 356.861633,478.955841 
	C358.576843,478.916870 360.292023,478.877899 362.835175,478.957916 
	C364.225952,478.918060 365.616730,478.878174 367.876862,478.958313 
	C369.921783,478.919434 371.966705,478.880585 374.893921,478.960938 
	C377.269348,478.917847 379.644775,478.874786 382.943359,478.949707 
	C387.635620,478.912231 392.327850,478.874756 397.920502,478.952942 
	C400.949585,478.914001 403.978699,478.875061 407.858582,478.965668 
	C409.575989,478.921478 411.293396,478.877258 413.878754,478.963135 
	C415.922699,478.919769 417.966675,478.876404 420.878540,478.964996 
	C422.923035,478.921967 424.967499,478.878967 427.862183,478.968506 
	C429.579407,478.924469 431.296600,478.880432 433.917633,478.972839 
	C437.289551,478.936310 440.661438,478.899750 444.897675,478.981842 
	C446.932159,478.945801 448.966675,478.909729 451.854736,479.009308 
	C453.576477,478.962585 455.298218,478.915863 457.948242,478.985504 
	C464.832123,478.985504 471.716034,478.985504 478.865234,478.985504 
	C478.865234,470.754852 478.865234,462.887817 479.038147,454.175018 
	C478.983093,452.450378 478.928070,450.725739 479.020508,448.125366 
	C478.966492,445.761810 478.912506,443.398254 479.024994,440.128754 
	C478.962555,436.757050 478.900116,433.385315 478.989502,429.148315 
	C478.938049,427.102966 478.886597,425.057648 478.984772,422.146851 
	C478.934875,420.101471 478.884949,418.056091 478.981171,415.144836 
	C478.932983,413.099792 478.884827,411.054749 478.980286,408.130310 
	C478.930878,405.756653 478.881500,403.383026 478.973083,400.110413 
	C478.927765,397.080841 478.882477,394.051270 478.985962,390.095856 
	C478.934448,385.070557 478.882935,380.045288 478.972931,374.138428 
	C478.929993,371.762848 478.887085,369.387268 478.972870,366.129791 
	C478.928070,363.755707 478.883270,361.381622 478.965149,358.157135 
	C478.922119,356.441467 478.879089,354.725800 478.960449,352.182739 
	C478.920868,350.791077 478.881287,349.399414 478.978790,347.140808 
	C478.932373,345.097992 478.885956,343.055145 478.961609,340.160614 
	C478.921783,338.444214 478.881989,336.727844 478.958954,334.160339 
	C478.921051,332.444489 478.883179,330.728638 478.961945,328.183868 
	C478.925385,326.792938 478.888855,325.402039 478.959900,323.141174 
	C478.926514,321.098724 478.893158,319.056274 478.969910,316.109161 
	C478.936462,313.078430 478.902985,310.047729 478.974091,306.092712 
	C478.943115,302.069580 478.912140,298.046448 478.976898,293.090698 
	C478.950195,288.402100 478.923492,283.713501 478.979950,278.106537 
	C478.961090,274.743195 478.942200,271.379883 478.980896,267.079559 
	C478.964905,261.061920 478.948944,255.044296 478.987366,248.100754 
	C478.981293,244.404373 478.975250,240.707977 478.994751,236.073654 
	C478.993256,229.719452 478.991791,223.365265 479.000671,216.072418 
	C479.000671,206.112167 479.000671,196.151932 479.000671,186.191681 
	C478.462311,186.047760 477.923950,185.903824 477.385559,185.759888 
	C475.819580,187.113419 474.132294,188.351227 472.710236,189.842041 
	C468.371246,194.390732 464.221985,199.123672 459.798615,203.586411 
	C458.637787,204.757553 456.750427,205.208557 455.051941,205.188110 
	C450.885284,186.539734 444.310394,168.787125 435.170319,152.002502 
	C434.330688,150.460571 433.091797,149.136047 431.757172,147.080185 
	C428.585052,142.276093 425.412903,137.471985 422.114685,131.997070 
	C418.337372,126.772926 414.960754,121.190224 410.685120,116.411987 
	C404.844940,109.885284 398.320465,103.970940 391.766449,97.208557 
	C389.772186,95.503250 387.876526,93.663528 385.766846,92.115501 
	C375.741943,84.759529 365.941986,77.042374 355.498779,70.329926 
	C348.287201,65.694618 340.269135,62.239132 332.407104,58.711800 
	C324.600739,55.209400 316.694519,51.773739 308.541229,49.247707 
	C301.561096,47.085133 294.048279,46.689674 286.984222,44.740204 
	C271.273956,40.404629 255.287415,41.928143 239.389648,41.991467 
	C231.959381,42.021061 224.466385,42.821720 217.123367,44.018570 
	C208.100937,45.489147 199.037231,47.179569 190.302216,49.808014 
	C181.439697,52.474827 172.860184,56.177624 164.335495,59.842522 
	C157.033203,62.981892 149.672882,66.197693 142.903839,70.310577 
	C135.065475,75.073181 127.749695,80.726143 120.402611,86.252548 
	C117.339996,88.556198 114.782158,91.530930 111.257019,94.182465 
	C110.790665,94.769089 110.324318,95.355705 109.950584,95.943008 
	C109.950584,95.943008 109.928200,95.853127 109.353798,95.403671 
	C108.884544,95.914101 108.415298,96.424530 107.997849,96.999016 
	C107.997849,96.999016 107.962166,96.924873 107.423523,97.037666 
	C107.256004,97.344711 107.088493,97.651756 106.990959,97.990921 
	C106.990959,97.990921 106.957153,97.921753 106.397812,98.003242 
	C106.238060,98.320457 106.078308,98.637672 105.990227,98.990074 
	C105.990227,98.990074 105.954277,98.918785 105.384956,98.981323 
	C105.229057,99.306190 105.073158,99.631065 104.989059,99.988953 
	C104.989059,99.988953 104.955467,99.917404 104.379631,99.972649 
	C104.225395,100.299019 104.071152,100.625389 103.989861,100.989784 
	C103.989861,100.989784 103.951828,100.916840 103.371918,100.962173 
	C103.219986,101.292702 103.068054,101.623230 102.988747,101.988747 
	C102.988747,101.988747 102.953773,101.916115 102.373077,101.961006 
	C102.220779,102.291901 102.068481,102.622803 101.988800,102.988823 
	C101.988800,102.988823 101.953667,102.916206 101.374069,102.962120 
	C101.221596,103.292839 101.069115,103.623566 100.988792,103.988853 
	C100.988792,103.988853 100.954750,103.916466 100.379349,103.968430 
	C100.225456,104.296524 100.071564,104.624619 99.989944,104.989990 
	C99.989944,104.989990 99.953003,104.917534 99.380005,104.972412 
	C99.226112,105.299911 99.072212,105.627411 98.989532,105.989754 
	C98.989532,105.989754 98.955734,105.918030 98.395676,105.988899 
	C98.237816,106.311607 98.079956,106.634323 97.991119,106.991119 
	C97.991119,106.991119 97.958847,106.921234 97.418678,107.026428 
z"/>
<path fill="#D365BA" opacity="1.000000" stroke="none" 
	d="
M42.164497,262.999481 
	C42.100456,259.986877 42.010365,256.974548 41.977722,253.961609 
	C41.907036,247.436478 41.475197,240.883987 41.923973,234.393372 
	C42.359406,228.095688 43.711414,221.861389 45.267612,215.300110 
	C50.259262,215.664993 54.643913,216.881195 59.029186,216.883438 
	C69.701660,216.888901 80.374001,216.091324 91.047195,216.072540 
	C100.308617,216.056244 109.571144,216.664917 118.892822,217.442810 
	C118.616867,224.416061 118.281273,230.943893 117.938866,237.604187 
	C123.257782,237.604187 127.917946,237.604187 132.584976,237.604187 
	C133.050552,231.138092 133.487503,225.069382 134.370972,219.000427 
	C141.559067,219.001968 148.300644,219.005585 155.042206,219.005005 
	C161.720200,219.004425 168.399033,219.051392 175.075287,218.942139 
	C176.105316,218.925293 177.123474,218.182663 178.405014,218.020050 
	C180.970734,223.415710 183.464020,228.494446 185.518051,233.745026 
	C186.786026,236.986298 188.538467,238.610840 192.136383,238.048370 
	C193.759323,237.794662 195.478485,237.827301 197.112350,238.044037 
	C200.094437,238.439575 201.612228,237.104248 202.766830,234.457687 
	C205.347321,228.542755 208.202530,222.747711 211.142624,217.259583 
	C213.176361,218.076904 215.009766,218.921371 216.850800,218.938324 
	C229.541306,219.055313 242.233414,218.999542 255.008026,219.441101 
	C255.475327,225.768066 255.859634,231.653244 256.248047,237.601486 
	C261.261292,237.601486 265.929199,237.601486 270.077393,237.601486 
	C270.077393,229.128143 270.077393,221.063705 270.494080,213.010590 
	C278.631653,213.348740 286.352539,213.675568 294.134216,214.467896 
	C294.195038,222.525192 294.195038,230.117020 294.195038,237.542847 
	C322.882172,237.542847 350.743195,237.542847 378.656342,237.542847 
	C378.996307,233.188171 379.300354,229.293533 379.647430,224.848053 
	C356.365601,224.848053 333.470856,224.848053 310.167206,224.848053 
	C310.167206,221.881638 310.167206,219.439453 310.564270,216.999268 
	C314.034149,217.018936 317.106934,217.052780 320.179749,217.051147 
	C328.647461,217.046631 337.115234,217.004242 345.582855,217.028854 
	C347.897705,217.035583 350.212311,217.220062 352.526550,217.333176 
	C356.482941,217.526535 360.443085,217.950623 364.394196,217.877014 
	C371.422180,217.746048 378.446533,217.030579 385.468903,217.077850 
	C395.866516,217.147842 406.259369,217.785843 416.657837,217.940796 
	C420.596161,217.999481 424.541046,217.191971 428.488953,217.122467 
	C437.291138,216.967468 446.097168,217.028610 455.042938,217.392273 
	C455.478821,219.731750 455.721161,221.690262 456.079102,223.627441 
	C456.771942,227.377365 457.529877,231.115295 458.244781,235.329529 
	C458.445068,237.887405 458.661407,239.973953 458.525208,242.265930 
	C458.058594,244.980789 457.944519,247.490189 457.380676,249.999786 
	C428.332581,247.941849 399.682098,250.367081 371.012634,248.570557 
	C370.691833,246.392349 371.693604,243.935043 368.382965,243.990494 
	C364.016541,244.063599 359.647980,244.008469 355.254486,244.008469 
	C355.079681,246.079605 354.956451,247.539536 354.398529,248.999680 
	C327.364594,248.999771 300.765381,248.999634 274.104980,248.560852 
	C273.368225,246.709427 272.792694,244.143158 272.000549,244.074463 
	C267.474731,243.681976 262.897369,243.883865 257.835663,243.883865 
	C257.835663,249.097794 257.835663,253.548050 257.379333,257.998993 
	C244.423386,257.999939 231.922577,257.917908 219.425827,258.106415 
	C217.894928,258.129517 216.385895,259.601196 214.540527,260.267792 
	C205.510254,253.412064 195.635483,249.316910 184.956146,246.951233 
	C162.950638,242.076584 140.653076,244.196411 118.447800,244.106186 
	C118.189774,244.105133 117.930321,244.456009 117.072975,245.074219 
	C117.072975,251.099640 117.072975,257.549835 116.601181,264.000000 
	C91.474426,263.666504 66.819466,263.333008 42.164497,262.999481 
z"/>
<path fill="#EA61A0" opacity="1.000000" stroke="none" 
	d="
M111.994797,94.200523 
	C114.782158,91.530930 117.339996,88.556198 120.402611,86.252548 
	C127.749695,80.726143 135.065475,75.073181 142.903839,70.310577 
	C149.672882,66.197693 157.033203,62.981892 164.335495,59.842522 
	C172.860184,56.177624 181.439697,52.474827 190.302216,49.808014 
	C199.037231,47.179569 208.100937,45.489147 217.123367,44.018570 
	C224.466385,42.821720 231.959381,42.021061 239.389648,41.991467 
	C255.287415,41.928143 271.273956,40.404629 286.984222,44.740204 
	C294.048279,46.689674 301.561096,47.085133 308.541229,49.247707 
	C316.694519,51.773739 324.600739,55.209400 332.407104,58.711800 
	C340.269135,62.239132 348.287201,65.694618 355.498779,70.329926 
	C365.941986,77.042374 375.741943,84.759529 385.766846,92.115501 
	C387.876526,93.663528 389.772186,95.503250 391.828918,97.913239 
	C390.608185,99.078438 389.341675,99.870651 388.038666,99.936058 
	C384.423248,100.117523 380.792603,99.996452 377.106445,99.560181 
	C377.492371,95.375504 374.895874,95.825127 372.553986,95.826233 
	C347.926270,95.837914 323.298462,95.812576 298.670959,95.883545 
	C297.137360,95.887970 295.605896,96.613083 293.632843,97.002029 
	C284.103485,97.001816 275.014679,97.002472 265.649536,96.686226 
	C260.250854,96.247063 255.128494,96.124802 249.555664,96.001495 
	C243.157257,96.333633 237.212051,96.878960 231.260818,96.955154 
	C219.426880,97.106682 207.589600,97.000000 195.753708,97.000000 
	C179.196564,97.000000 162.639252,96.968163 146.082489,97.047729 
	C144.369232,97.055962 142.659180,97.727226 140.652344,97.814896 
	C136.299377,96.970863 132.234909,96.446831 128.186172,95.820976 
	C124.840958,95.303879 123.732597,96.986244 123.411484,99.996460 
	C119.407249,99.657127 115.807739,99.429527 112.254967,98.892624 
	C111.409859,98.764908 110.721123,97.602386 109.989433,96.649048 
	C109.988342,96.205872 109.958267,96.029495 109.928200,95.853127 
	C109.928200,95.853127 109.950584,95.943008 110.199966,95.947731 
	C110.964493,95.368477 111.479645,94.784500 111.994797,94.200523 
z"/>
<path fill="#BD65D0" opacity="1.000000" stroke="none" 
	d="
M105.795380,400.383759 
	C104.298439,399.442139 102.390511,398.820557 101.368996,397.508728 
	C92.465897,386.075562 83.721542,374.518829 75.077652,362.279480 
	C77.029602,361.040131 78.829185,360.089569 80.639030,360.069641 
	C92.782013,359.935852 104.927193,360.000000 117.128860,360.465912 
	C117.186073,369.183197 117.186073,377.434570 117.186073,386.007263 
	C132.282867,386.007263 146.572433,385.941406 160.861145,386.023224 
	C180.763229,386.137146 198.962128,381.145447 214.896271,368.810669 
	C220.374786,369.721924 225.617935,370.723358 230.861649,370.726379 
	C243.568909,370.733704 256.276428,370.276062 269.262939,370.185791 
	C274.540985,376.945465 281.070679,381.677216 288.876526,383.905426 
	C312.752533,390.720886 335.577148,390.598907 355.374786,371.990479 
	C361.154358,372.268372 366.518433,372.795319 371.878296,372.755432 
	C381.434509,372.684296 390.987976,372.081635 400.542999,372.070251 
	C406.391296,372.063293 412.240417,372.743958 418.040222,373.452362 
	C417.649048,374.857330 417.306854,375.925751 416.741577,377.093231 
	C416.244843,377.389923 416.053833,377.648621 415.643158,378.126099 
	C413.396057,380.728516 411.451294,383.173248 409.327148,385.828308 
	C404.177643,390.385956 399.207520,394.733215 393.803986,399.049927 
	C389.925201,398.735992 386.478943,398.216858 383.034698,398.229950 
	C378.912598,398.245575 374.787811,398.997559 370.671906,398.933777 
	C360.445068,398.775330 350.221985,398.055756 339.998566,398.079163 
	C327.645935,398.107452 315.296204,398.797821 302.942017,398.963806 
	C290.637451,399.129150 278.327637,399.104401 266.022675,398.954956 
	C260.070862,398.882660 254.126358,398.110352 248.175735,398.070190 
	C243.316605,398.037384 238.452576,398.884216 233.592041,398.870453 
	C226.105652,398.849243 218.618988,398.183228 211.135010,398.227356 
	C199.002533,398.298859 186.872604,398.747314 174.740585,398.985168 
	C171.331360,399.052002 167.918549,398.944031 164.507477,398.907745 
	C158.194977,398.840607 151.881760,398.808350 145.570343,398.684387 
	C139.702759,398.569122 133.838074,398.299286 127.970390,398.197418 
	C122.560974,398.103485 117.138481,397.939972 111.744133,398.227386 
	C109.728630,398.334778 107.776428,399.630096 105.795380,400.383759 
z"/>
<path fill="#BA64D3" opacity="1.000000" stroke="none" 
	d="
M105.956299,400.667053 
	C107.776428,399.630096 109.728630,398.334778 111.744133,398.227386 
	C117.138481,397.939972 122.560974,398.103485 127.970390,398.197418 
	C133.838074,398.299286 139.702759,398.569122 145.570343,398.684387 
	C151.881760,398.808350 158.194977,398.840607 164.507477,398.907745 
	C167.918549,398.944031 171.331360,399.052002 174.740585,398.985168 
	C186.872604,398.747314 199.002533,398.298859 211.135010,398.227356 
	C218.618988,398.183228 226.105652,398.849243 233.592041,398.870453 
	C238.452576,398.884216 243.316605,398.037384 248.175735,398.070190 
	C254.126358,398.110352 260.070862,398.882660 266.022675,398.954956 
	C278.327637,399.104401 290.637451,399.129150 302.942017,398.963806 
	C315.296204,398.797821 327.645935,398.107452 339.998566,398.079163 
	C350.221985,398.055756 360.445068,398.775330 370.671906,398.933777 
	C374.787811,398.997559 378.912598,398.245575 383.034698,398.229950 
	C386.478943,398.216858 389.925201,398.735992 393.639008,399.350006 
	C389.039429,404.368011 384.171417,409.055389 379.112549,414.076263 
	C377.139709,415.654083 375.357727,416.898407 373.300903,418.233337 
	C372.091583,418.574890 371.157043,418.825806 369.847260,418.924866 
	C359.671387,418.194489 349.869812,417.146027 340.070496,417.166748 
	C329.838470,417.188385 319.613403,418.610352 309.376556,418.741943 
	C297.863464,418.889954 286.338776,418.337555 274.822632,417.977692 
	C267.955353,417.763123 261.094208,417.058868 254.231323,417.072937 
	C246.536255,417.088684 238.835129,417.550873 231.149734,418.029175 
	C221.472900,418.631409 211.734497,416.256927 202.070999,418.888336 
	C199.778732,419.512543 197.126099,418.829895 194.640274,418.723999 
	C182.166397,418.192657 169.696152,417.545990 157.217773,417.164032 
	C151.367523,416.984985 145.417007,416.759186 139.678925,417.641113 
	C136.813019,418.081573 131.893539,415.283356 130.967224,421.117371 
	C121.895180,415.366882 113.795105,408.418732 105.956299,400.667053 
z"/>
<path fill="#E063AB" opacity="1.000000" stroke="none" 
	d="
M422.240784,132.667892 
	C425.412903,137.471985 428.585052,142.276093 431.584961,147.546692 
	C431.666321,148.713242 431.885193,149.428253 432.178833,150.111099 
	C435.459473,157.740234 438.751678,165.364441 441.569305,172.993027 
	C430.481781,172.690964 419.866364,172.183228 409.249359,172.146912 
	C401.218506,172.119431 393.187469,172.822388 385.152740,172.938019 
	C381.872192,172.985245 378.581696,172.340378 375.246643,171.545563 
	C375.197510,167.169586 375.197510,163.258423 375.197510,158.843597 
	C353.059998,158.843597 331.726868,158.843597 310.166901,158.843597 
	C310.166901,150.210403 310.166901,142.104889 310.582520,134.001251 
	C318.846893,134.335434 326.693542,134.872818 334.544952,134.955673 
	C349.176636,135.110077 363.811127,135.004364 378.444427,134.993347 
	C379.938232,134.992218 381.431793,134.859772 382.925751,134.854355 
	C390.248962,134.827789 397.585754,135.092285 404.891296,134.726089 
	C410.694275,134.435226 416.459045,133.382416 422.240784,132.667892 
z"/>
<path fill="#B864D5" opacity="1.000000" stroke="none" 
	d="
M131.138641,421.405701 
	C131.893539,415.283356 136.813019,418.081573 139.678925,417.641113 
	C145.417007,416.759186 151.367523,416.984985 157.217773,417.164032 
	C169.696152,417.545990 182.166397,418.192657 194.640274,418.723999 
	C197.126099,418.829895 199.778732,419.512543 202.070999,418.888336 
	C211.734497,416.256927 221.472900,418.631409 231.149734,418.029175 
	C238.835129,417.550873 246.536255,417.088684 254.231323,417.072937 
	C261.094208,417.058868 267.955353,417.763123 274.822632,417.977692 
	C286.338776,418.337555 297.863464,418.889954 309.376556,418.741943 
	C319.613403,418.610352 329.838470,417.188385 340.070496,417.166748 
	C349.869812,417.146027 359.671387,418.194489 369.648743,419.214630 
	C367.947723,420.923920 366.152649,422.341370 364.177429,423.432770 
	C356.489014,427.680939 348.743439,431.825653 340.666199,435.851105 
	C333.116547,435.211487 325.926086,434.520050 318.721344,434.303314 
	C310.559174,434.057831 302.384247,434.227692 294.214844,434.235504 
	C285.000153,434.244324 275.717316,433.626007 266.601257,434.584473 
	C262.430908,435.022949 258.589691,435.377563 254.562027,434.379730 
	C253.298508,434.066742 251.935379,434.081116 250.617218,434.074890 
	C237.969009,434.015289 225.320526,434.003876 212.672607,433.912262 
	C211.381958,433.902924 210.078293,433.186768 208.808151,433.262085 
	C200.517334,433.754089 192.240906,434.666351 183.946213,434.859772 
	C177.265533,435.015564 170.565262,434.181335 163.874908,434.201141 
	C162.566330,434.205017 161.263382,436.111938 159.607300,437.065613 
	C155.186890,435.296417 151.117020,433.602661 147.047150,431.908905 
	C141.801453,428.503937 136.555756,425.098999 131.138641,421.405701 
z"/>
<path fill="#CB65C1" opacity="1.000000" stroke="none" 
	d="
M42.102043,263.364014 
	C66.819466,263.333008 91.474426,263.666504 116.657913,264.465942 
	C117.147354,280.287903 117.108276,295.643951 116.645935,311.008789 
	C109.861877,311.282928 103.502937,311.706665 97.139908,311.781067 
	C83.241821,311.943542 69.341576,311.966522 55.442478,311.933777 
	C53.853409,311.930023 52.266026,311.208557 50.677856,310.819885 
	C49.187763,305.995758 47.356487,301.245880 46.287331,296.330200 
	C44.673103,288.908447 43.442562,281.392517 42.349949,273.872894 
	C41.866642,270.546631 42.120422,267.113312 42.102043,263.364014 
z"/>
<path fill="#D964B3" opacity="1.000000" stroke="none" 
	d="
M118.833176,216.997375 
	C109.571144,216.664917 100.308617,216.056244 91.047195,216.072540 
	C80.374001,216.091324 69.701660,216.888901 59.029186,216.883438 
	C54.643913,216.881195 50.259262,215.664993 45.468269,214.998337 
	C45.822544,209.705093 46.118233,204.293518 47.456627,199.153442 
	C49.275723,192.167221 51.891953,185.388565 54.692078,178.115570 
	C56.919895,176.806900 58.626675,175.118195 60.323257,175.128387 
	C70.875946,175.191772 81.431778,176.001801 91.975914,175.845596 
	C101.550766,175.703766 111.112083,174.647842 120.739586,174.423553 
	C120.144264,188.900604 119.488716,202.948990 118.833176,216.997375 
z"/>
<path fill="#E563A7" opacity="1.000000" stroke="none" 
	d="
M422.177734,132.332489 
	C416.459045,133.382416 410.694275,134.435226 404.891296,134.726089 
	C397.585754,135.092285 390.248962,134.827789 382.925751,134.854355 
	C381.431793,134.859772 379.938232,134.992218 378.444427,134.993347 
	C363.811127,135.004364 349.176636,135.110077 334.544952,134.955673 
	C326.693542,134.872818 318.846893,134.335434 310.520386,133.536118 
	C310.042633,125.286339 310.042633,117.503586 310.042633,109.068390 
	C332.578705,109.068390 354.613373,109.068390 377.167999,109.068390 
	C377.167999,105.607323 377.167999,102.801125 377.167999,99.994926 
	C380.792603,99.996452 384.423248,100.117523 388.038666,99.936058 
	C389.341675,99.870651 390.608185,99.078438 391.990356,98.205994 
	C398.320465,103.970940 404.844940,109.885284 410.685120,116.411987 
	C414.960754,121.190224 418.337372,126.772926 422.177734,132.332489 
z"/>
<path fill="#C465C7" opacity="1.000000" stroke="none" 
	d="
M50.434845,311.049011 
	C52.266026,311.208557 53.853409,311.930023 55.442478,311.933777 
	C69.341576,311.966522 83.241821,311.943542 97.139908,311.781067 
	C103.502937,311.706665 109.861877,311.282928 116.703323,311.474670 
	C117.146538,327.954498 117.109100,343.977234 117.071655,360.000000 
	C104.927193,360.000000 92.782013,359.935852 80.639030,360.069641 
	C78.829185,360.089569 77.029602,361.040131 75.027008,361.939392 
	C68.642845,353.629272 62.326183,345.125305 59.217194,334.573364 
	C56.871754,326.612946 53.247105,319.029388 50.434845,311.049011 
z"/>
<path fill="#DE63AB" opacity="1.000000" stroke="none" 
	d="
M120.679367,173.994888 
	C111.112083,174.647842 101.550766,175.703766 91.975914,175.845596 
	C81.431778,176.001801 70.875946,175.191772 60.323257,175.128387 
	C58.626675,175.118195 56.919895,176.806900 54.912357,177.833099 
	C55.151363,176.032104 55.434494,173.983185 56.285168,172.205933 
	C60.138714,164.155121 64.042671,156.124008 68.153648,148.202667 
	C70.298965,144.068924 72.910263,140.176987 75.834351,136.321533 
	C83.107750,136.970963 89.855408,137.840347 96.608650,137.886093 
	C105.095184,137.943588 113.586281,137.326782 122.130417,137.467102 
	C121.683411,149.953796 121.181389,161.974350 120.679367,173.994888 
z"/>
<path fill="#878787" opacity="1.000000" stroke="none" 
	d="
M478.831421,375.020020 
	C478.882935,380.045288 478.934448,385.070557 478.578369,390.593262 
	C476.771942,392.235016 475.228790,393.242737 473.996002,394.544434 
	C457.201691,412.277893 440.421875,430.025330 423.700470,447.827545 
	C415.517059,456.539917 407.419495,465.334442 399.397308,474.195160 
	C398.270477,475.439758 397.796356,477.275299 397.020111,478.837280 
	C392.327850,478.874756 387.635620,478.912231 382.518463,478.555786 
	C392.682068,466.322998 403.115997,454.341125 413.899689,442.682800 
	C426.292847,429.284515 439.050842,416.224396 451.539001,402.912964 
	C457.201843,396.876740 462.453705,390.452637 468.167938,384.468018 
	C471.436066,381.045258 475.258545,378.151794 478.831421,375.020020 
z"/>
<path fill="#B3B3B3" opacity="1.000000" stroke="none" 
	d="
M416.964661,376.994171 
	C417.306854,375.925751 417.649048,374.857330 418.305359,373.302216 
	C419.417206,372.198273 420.214905,371.581024 421.253296,371.156372 
	C421.172760,372.747925 420.851501,374.146912 420.193237,377.013733 
	C422.547363,374.799133 423.915436,373.656525 425.117249,372.359833 
	C441.483978,354.701355 457.801392,336.996979 474.235229,319.401306 
	C475.350403,318.207306 477.298859,317.791534 478.859772,317.013824 
	C478.893158,319.056274 478.926514,321.098724 478.573914,323.613556 
	C475.445038,326.903748 472.651031,329.673859 469.967743,332.547363 
	C456.388123,347.089752 442.835175,361.657074 429.276978,376.219482 
	C415.832001,390.660217 402.443817,405.154297 388.934479,419.534576 
	C376.437195,432.837555 363.801453,446.010406 351.249298,459.261993 
	C346.459808,464.318390 341.667847,469.376007 337.029510,474.569275 
	C336.020538,475.698975 335.664276,477.411621 335.007416,478.855774 
	C332.638641,478.887115 330.269897,478.918427 327.496033,478.566010 
	C332.924561,471.424408 338.558380,464.480743 344.633575,457.947540 
	C357.074524,444.568787 369.808441,431.462524 382.257050,418.090729 
	C383.703522,416.537018 384.110229,414.015289 385.159180,411.651062 
	C392.111298,404.840088 398.987122,398.404144 405.636261,391.741913 
	C407.300690,390.074219 408.236115,387.678925 409.506561,385.617981 
	C411.451294,383.173248 413.396057,380.728516 415.924805,378.243011 
	C417.192871,378.207611 417.876862,378.212982 418.560883,378.218353 
	C418.028809,377.810272 417.496735,377.402222 416.964661,376.994171 
z"/>
<path fill="#E563A7" opacity="1.000000" stroke="none" 
	d="
M122.075409,137.000961 
	C113.586281,137.326782 105.095184,137.943588 96.608650,137.886093 
	C89.855408,137.840347 83.107750,136.970963 76.138412,136.150696 
	C81.255379,128.524292 86.591545,121.214424 92.401001,113.550232 
	C93.557808,112.418007 94.241325,111.640106 94.924843,110.862213 
	C94.924843,110.862213 94.949738,110.951569 95.277550,110.920998 
	C96.049805,109.907516 96.494247,108.924599 96.938698,107.941689 
	C96.938698,107.941689 96.997955,107.997627 97.333344,108.131447 
	C97.765442,107.817253 97.862144,107.369247 97.958847,106.921234 
	C97.958847,106.921234 97.991119,106.991119 98.320732,107.111862 
	C98.752144,106.794418 98.853935,106.356224 98.955734,105.918030 
	C98.955734,105.918030 98.989532,105.989754 99.316711,106.088127 
	C99.746925,105.763512 99.849960,105.340523 99.953003,104.917534 
	C99.953003,104.917534 99.989944,104.989990 100.312424,105.084351 
	C100.741524,104.757965 100.848137,104.337212 100.954750,103.916466 
	C100.954750,103.916466 100.988792,103.988853 101.310692,104.075577 
	C101.739616,103.746933 101.846642,103.331566 101.953667,102.916206 
	C101.953667,102.916206 101.988800,102.988823 102.309883,103.072662 
	C102.738571,102.743042 102.846176,102.329575 102.953773,101.916115 
	C102.953773,101.916115 102.988747,101.988747 103.312500,102.072754 
	C103.741447,101.743462 103.846642,101.330147 103.951828,100.916840 
	C103.951828,100.916840 103.989861,100.989784 104.313858,101.080437 
	C104.743721,100.753197 104.849594,100.335297 104.955467,99.917404 
	C104.955467,99.917404 104.989059,99.988953 105.317665,100.077522 
	C105.748940,99.750320 105.851608,99.334549 105.954269,98.918785 
	C105.954277,98.918785 105.990227,98.990074 106.326553,99.090103 
	C106.760971,98.767342 106.859062,98.344543 106.957153,97.921753 
	C106.957153,97.921753 106.990959,97.990921 107.334274,98.102280 
	C107.772446,97.784042 107.867302,97.354462 107.962158,96.924873 
	C107.962166,96.924873 107.997849,96.999016 108.245392,97.259224 
	C108.982117,97.318237 109.471283,97.117043 109.960457,96.915848 
	C110.721123,97.602386 111.409859,98.764908 112.254967,98.892624 
	C115.807739,99.429527 119.407249,99.657127 123.475655,100.453133 
	C123.332901,112.939194 122.704155,124.970078 122.075409,137.000961 
z"/>
<path fill="#979797" opacity="1.000000" stroke="none" 
	d="
M374.011597,478.841675 
	C371.966705,478.880585 369.921783,478.919434 367.444946,478.545288 
	C367.487427,477.112793 367.749939,475.901611 368.470734,475.105133 
	C372.922394,470.185669 377.478546,465.360809 381.997589,460.502319 
	C390.809052,451.029053 399.574371,441.512421 408.439087,432.089294 
	C425.383545,414.077576 442.409180,396.142212 459.346985,378.124237 
	C464.681702,372.449310 469.792297,366.563507 475.134735,360.896088 
	C476.029846,359.946533 477.587158,359.621246 478.838501,359.007538 
	C478.883270,361.381622 478.928070,363.755707 478.575684,366.607941 
	C476.782196,368.226837 475.232086,369.224091 474.013214,370.530426 
	C461.130798,384.336792 448.353760,398.241638 435.443787,412.022064 
	C419.013214,429.560547 402.432220,446.958374 386.038940,464.531464 
	C381.794189,469.081726 378.008270,474.059998 374.011597,478.841675 
z"/>
<path fill="#797A79" opacity="1.000000" stroke="none" 
	d="
M397.470306,478.895111 
	C397.796356,477.275299 398.270477,475.439758 399.397308,474.195160 
	C407.419495,465.334442 415.517059,456.539917 423.700470,447.827545 
	C440.421875,430.025330 457.201691,412.277893 473.996002,394.544434 
	C475.228790,393.242737 476.771942,392.235016 478.503998,391.056152 
	C478.882477,394.051270 478.927765,397.080841 478.569183,400.599365 
	C476.652618,402.351837 474.986511,403.471954 473.651123,404.901093 
	C460.519501,418.954773 447.440186,433.057312 434.351562,447.151123 
	C425.776611,456.384613 417.177399,465.596191 408.689545,474.909210 
	C407.783569,475.903351 407.552124,477.512299 407.007751,478.836090 
	C403.978699,478.875061 400.949585,478.914001 397.470306,478.895111 
z"/>
<path fill="#919291" opacity="1.000000" stroke="none" 
	d="
M374.452759,478.901306 
	C378.008270,474.059998 381.794189,469.081726 386.038940,464.531464 
	C402.432220,446.958374 419.013214,429.560547 435.443787,412.022064 
	C448.353760,398.241638 461.130798,384.336792 474.013214,370.530426 
	C475.232086,369.224091 476.782196,368.226837 478.511353,367.048889 
	C478.887085,369.387268 478.929993,371.762848 478.902191,374.579224 
	C475.258545,378.151794 471.436066,381.045258 468.167938,384.468018 
	C462.453705,390.452637 457.201843,396.876740 451.539001,402.912964 
	C439.050842,416.224396 426.292847,429.284515 413.899689,442.682800 
	C403.115997,454.341125 392.682068,466.322998 382.056885,478.496796 
	C379.644775,478.874786 377.269348,478.917847 374.452759,478.901306 
z"/>
<path fill="#ABABAB" opacity="1.000000" stroke="none" 
	d="
M478.845276,329.012756 
	C478.883179,330.728638 478.921051,332.444489 478.569244,334.623657 
	C476.780060,336.231079 475.216736,337.224792 474.006958,338.542999 
	C463.908844,349.546082 453.913666,360.643646 443.811615,371.643127 
	C435.049957,381.183105 426.222504,390.663269 417.365417,400.114807 
	C401.688568,416.843750 385.982300,433.545197 370.257233,450.228821 
	C363.416321,457.486694 356.422546,464.602112 349.664856,471.935822 
	C347.805115,473.954132 346.545898,476.525879 345.011139,478.843658 
	C343.295776,478.879944 341.580383,478.916260 339.475952,478.567688 
	C339.641785,477.372314 340.106079,476.478271 340.765045,475.763763 
	C353.036407,462.458130 365.305664,449.150330 377.627411,435.891418 
	C391.536285,420.924622 405.451111,405.962860 419.448273,391.078766 
	C431.965118,377.768738 444.608917,364.578125 457.172913,351.312225 
	C461.856049,346.367523 466.422607,341.311768 471.138062,336.398560 
	C473.599823,333.833618 476.269501,331.468262 478.845276,329.012756 
z"/>
<path fill="#A3A3A3" opacity="1.000000" stroke="none" 
	d="
M478.839569,341.012329 
	C478.885956,343.055145 478.932373,345.097992 478.557007,347.576965 
	C476.056122,349.543640 473.668945,350.789551 471.949066,352.651764 
	C462.398132,362.993561 453.131836,373.599121 443.539612,383.901672 
	C423.312103,405.626984 402.955200,427.231964 382.625000,448.861481 
	C376.033844,455.873901 369.267639,462.724091 362.771576,469.822418 
	C360.247620,472.580414 358.248718,475.818878 356.010681,478.838470 
	C354.619080,478.882935 353.227478,478.927399 351.424683,478.554749 
	C351.720032,476.881042 352.218750,475.434631 353.165802,474.397736 
	C361.327454,465.461761 369.559387,456.589783 377.790741,447.717651 
	C390.872772,433.617249 403.922668,419.486542 417.075928,405.452789 
	C428.990692,392.740356 441.080566,380.191986 452.982971,367.468109 
	C458.514862,361.554443 463.653442,355.270935 469.228577,349.400299 
	C472.143860,346.330444 475.617889,343.791229 478.839569,341.012329 
z"/>
<path fill="#A7A7A7" opacity="1.000000" stroke="none" 
	d="
M478.900604,340.586487 
	C475.617889,343.791229 472.143860,346.330444 469.228577,349.400299 
	C463.653442,355.270935 458.514862,361.554443 452.982971,367.468109 
	C441.080566,380.191986 428.990692,392.740356 417.075928,405.452789 
	C403.922668,419.486542 390.872772,433.617249 377.790741,447.717651 
	C369.559387,456.589783 361.327454,465.461761 353.165802,474.397736 
	C352.218750,475.434631 351.720032,476.881042 351.011292,478.490173 
	C349.293488,478.880890 347.577789,478.919006 345.436646,478.900391 
	C346.545898,476.525879 347.805115,473.954132 349.664856,471.935822 
	C356.422546,464.602112 363.416321,457.486694 370.257233,450.228821 
	C385.982300,433.545197 401.688568,416.843750 417.365417,400.114807 
	C426.222504,390.663269 435.049957,381.183105 443.811615,371.643127 
	C453.913666,360.643646 463.908844,349.546082 474.006958,338.542999 
	C475.216736,337.224792 476.780060,336.231079 478.510864,335.049194 
	C478.881989,336.727844 478.921783,338.444214 478.900604,340.586487 
z"/>
<path fill="#AFAFAF" opacity="1.000000" stroke="none" 
	d="
M478.903625,328.598328 
	C476.269501,331.468262 473.599823,333.833618 471.138062,336.398560 
	C466.422607,341.311768 461.856049,346.367523 457.172913,351.312225 
	C444.608917,364.578125 431.965118,377.768738 419.448273,391.078766 
	C405.451111,405.962860 391.536285,420.924622 377.627411,435.891418 
	C365.305664,449.150330 353.036407,462.458130 340.765045,475.763763 
	C340.106079,476.478271 339.641785,477.372314 339.049957,478.514038 
	C337.943542,478.884155 336.874054,478.923004 335.406006,478.908813 
	C335.664276,477.411621 336.020538,475.698975 337.029510,474.569275 
	C341.667847,469.376007 346.459808,464.318390 351.249298,459.261993 
	C363.801453,446.010406 376.437195,432.837555 388.934479,419.534576 
	C402.443817,405.154297 415.832001,390.660217 429.276978,376.219482 
	C442.835175,361.657074 456.388123,347.089752 469.967743,332.547363 
	C472.651031,329.673859 475.445038,326.903748 478.520142,324.048523 
	C478.888855,325.402039 478.925385,326.792938 478.903625,328.598328 
z"/>
<path fill="#9F9F9F" opacity="1.000000" stroke="none" 
	d="
M356.436157,478.897156 
	C358.248718,475.818878 360.247620,472.580414 362.771576,469.822418 
	C369.267639,462.724091 376.033844,455.873901 382.625000,448.861481 
	C402.955200,427.231964 423.312103,405.626984 443.539612,383.901672 
	C453.131836,373.599121 462.398132,362.993561 471.949066,352.651764 
	C473.668945,350.789551 476.056122,349.543640 478.488464,348.010437 
	C478.881287,349.399414 478.920868,350.791077 478.566040,352.635254 
	C476.774231,354.232605 475.215912,355.229340 474.004608,356.545441 
	C463.448456,368.014984 453.069427,379.649323 442.415985,391.027100 
	C424.939026,409.692383 407.268341,428.176117 389.734467,446.788361 
	C380.973938,456.087708 372.302246,465.471741 363.690338,474.908691 
	C362.783081,475.902832 362.552032,477.514038 362.007233,478.838928 
	C360.292023,478.877899 358.576843,478.916870 356.436157,478.897156 
z"/>
<path fill="#F5F5F5" opacity="1.000000" stroke="none" 
	d="
M455.196716,205.990265 
	C456.750427,205.208557 458.637787,204.757553 459.798615,203.586411 
	C464.221985,199.123672 468.371246,194.390732 472.710236,189.842041 
	C474.132294,188.351227 475.819580,187.113419 477.385559,185.759888 
	C477.923950,185.903824 478.462311,186.047760 479.000671,186.191681 
	C479.000671,196.151932 479.000671,206.112167 478.651306,216.570602 
	C475.562592,219.650085 472.861298,222.273315 470.074158,224.801971 
	C466.632507,227.924500 463.119476,230.968399 459.466614,233.671280 
	C457.929535,224.194275 456.563141,215.092270 455.196716,205.990265 
z"/>
<path fill="#9B9B9B" opacity="1.000000" stroke="none" 
	d="
M362.421204,478.898438 
	C362.552032,477.514038 362.783081,475.902832 363.690338,474.908691 
	C372.302246,465.471741 380.973938,456.087708 389.734467,446.788361 
	C407.268341,428.176117 424.939026,409.692383 442.415985,391.027100 
	C453.069427,379.649323 463.448456,368.014984 474.004608,356.545441 
	C475.215912,355.229340 476.774231,354.232605 478.503845,353.048950 
	C478.879089,354.725800 478.922119,356.441467 478.901825,358.582336 
	C477.587158,359.621246 476.029846,359.946533 475.134735,360.896088 
	C469.792297,366.563507 464.681702,372.449310 459.346985,378.124237 
	C442.409180,396.142212 425.383545,414.077576 408.439087,432.089294 
	C399.574371,441.512421 390.809052,451.029053 381.997589,460.502319 
	C377.478546,465.360809 372.922394,470.185669 368.470734,475.105133 
	C367.749939,475.901611 367.487427,477.112793 367.010284,478.485291 
	C365.616730,478.878174 364.225952,478.918060 362.421204,478.898438 
z"/>
<path fill="#F5F5F5" opacity="1.000000" stroke="none" 
	d="
M238.005707,478.995117 
	C227.817093,478.995117 217.628510,478.995117 207.439911,478.995117 
	C207.124008,478.474945 206.808121,477.954773 206.492218,477.434570 
	C211.627487,471.253906 216.762772,465.073212 222.352661,458.512024 
	C230.209091,458.701813 237.610901,459.272156 245.445251,459.908203 
	C247.914795,460.041931 249.951797,460.109924 251.944794,460.514740 
	C248.241180,465.090515 244.491608,469.256653 240.969757,473.607147 
	C239.700287,475.175323 238.977798,477.186249 238.005707,478.995117 
z"/>
<path fill="#B8B8B8" opacity="1.000000" stroke="none" 
	d="
M384.999023,411.942383 
	C384.110229,414.015289 383.703522,416.537018 382.257050,418.090729 
	C369.808441,431.462524 357.074524,444.568787 344.633575,457.947540 
	C338.558380,464.480743 332.924561,471.424408 327.054688,478.518127 
	C323.986938,478.885529 320.955505,478.917114 317.505981,478.573181 
	C320.616180,474.074310 324.025909,469.842041 327.696106,465.849152 
	C336.867737,455.871063 346.201080,446.041321 355.336365,436.030579 
	C356.306976,434.966980 356.395416,433.098358 357.123230,431.373718 
	C361.890930,428.213776 366.516998,425.407379 370.909515,422.273621 
	C372.149475,421.388977 372.705841,419.546112 373.575745,418.142700 
	C375.357727,416.898407 377.139709,415.654083 379.451294,414.064941 
	C381.653595,413.127533 383.326324,412.534973 384.999023,411.942383 
z"/>
<path fill="#B8B8B8" opacity="1.000000" stroke="none" 
	d="
M478.914856,316.561493 
	C477.298859,317.791534 475.350403,318.207306 474.235229,319.401306 
	C457.801392,336.996979 441.483978,354.701355 425.117249,372.359833 
	C423.915436,373.656525 422.547363,374.799133 420.193237,377.013733 
	C420.851501,374.146912 421.172760,372.747925 421.303619,370.769623 
	C421.880096,368.824127 422.646942,367.457916 423.703278,366.197449 
	C425.136658,365.333588 426.616211,364.571899 427.367310,363.359100 
	C430.970551,357.540833 434.376801,351.600616 438.026855,345.982025 
	C440.104095,345.036102 442.354431,344.136963 443.855072,342.535400 
	C454.447205,331.230804 464.860199,319.758423 475.424652,308.427521 
	C476.193146,307.603271 477.703857,307.470978 478.869507,307.016968 
	C478.902985,310.047729 478.936462,313.078430 478.914856,316.561493 
z"/>
<path fill="#737373" opacity="1.000000" stroke="none" 
	d="
M407.433167,478.900879 
	C407.552124,477.512299 407.783569,475.903351 408.689545,474.909210 
	C417.177399,465.596191 425.776611,456.384613 434.351562,447.151123 
	C447.440186,433.057312 460.519501,418.954773 473.651123,404.901093 
	C474.986511,403.471954 476.652618,402.351837 478.498718,401.048859 
	C478.881500,403.383026 478.930878,405.756653 478.552338,408.572205 
	C476.518341,410.079651 474.630585,410.881836 473.350037,412.251678 
	C461.118164,425.336334 449.000732,438.527893 436.824768,451.664978 
	C431.748535,457.141876 426.503693,462.466339 421.539886,468.042084 
	C418.496490,471.460693 415.840668,475.224335 413.010803,478.833069 
	C411.293396,478.877258 409.575989,478.921478 407.433167,478.900879 
z"/>
<path fill="#BFBFBF" opacity="1.000000" stroke="none" 
	d="
M478.921814,306.554840 
	C477.703857,307.470978 476.193146,307.603271 475.424652,308.427521 
	C464.860199,319.758423 454.447205,331.230804 443.855072,342.535400 
	C442.354431,344.136963 440.104095,345.036102 438.100952,345.639038 
	C438.824554,343.059692 439.816803,341.152588 440.426758,339.130127 
	C441.116913,336.841980 441.463898,334.450317 442.210876,332.067078 
	C442.628448,332.003540 442.795258,331.976624 443.301575,331.918213 
	C443.945862,331.282745 444.250610,330.678802 444.766602,329.823029 
	C444.664795,328.882599 444.351746,328.194000 444.253906,327.275726 
	C445.036438,325.687439 445.603699,324.328857 446.444366,322.848053 
	C448.262054,322.383240 450.319061,322.553864 451.263336,321.610596 
	C455.713531,317.165131 459.711731,312.267822 464.152863,307.812500 
	C468.897919,303.052277 473.958374,298.606384 478.881165,294.023315 
	C478.912140,298.046448 478.943115,302.069580 478.921814,306.554840 
z"/>
<path fill="#4E4E4E" opacity="1.000000" stroke="none" 
	d="
M444.033356,478.863190 
	C440.661438,478.899750 437.289551,478.936310 433.503052,478.570801 
	C436.995148,473.676453 440.809906,469.100067 444.827637,464.709412 
	C453.234863,455.521790 461.674774,446.361328 470.264557,437.345276 
	C472.844788,434.637024 475.964905,432.443146 478.837677,430.013611 
	C478.900116,433.385315 478.962555,436.757050 478.613098,440.619690 
	C469.498505,450.200958 460.707642,459.209320 452.141083,468.426208 
	C449.153687,471.640472 446.719971,475.369354 444.033356,478.863190 
z"/>
<path fill="#C7C7C7" opacity="1.000000" stroke="none" 
	d="
M306.023010,478.878296 
	C301.996155,478.905731 297.969330,478.933197 293.479065,478.574524 
	C293.594360,477.043335 293.950043,475.692047 294.787598,474.786499 
	C300.541656,468.565948 306.498718,462.530060 312.146820,456.216797 
	C313.553406,454.644501 314.066833,452.273132 315.321136,450.125122 
	C316.061829,449.742065 316.472229,449.502991 316.865784,449.259521 
	C316.848999,449.255127 316.875183,449.290161 317.218048,449.234924 
	C318.010620,449.071259 318.460327,448.962799 319.238281,448.789124 
	C319.893127,448.147430 320.219727,447.571014 320.796143,446.795166 
	C323.197815,445.742279 325.349731,444.888794 327.680298,444.303253 
	C328.589020,444.580963 329.319122,444.590729 330.357849,444.448425 
	C331.128571,443.861816 331.590668,443.427246 332.024780,442.984802 
	C331.996826,442.976929 331.972260,443.029388 332.342041,442.996552 
	C334.140442,442.657318 335.569092,442.350891 336.994080,442.407043 
	C336.425140,443.913086 336.087463,445.266541 335.257660,446.166077 
	C329.658173,452.236267 323.846436,458.112976 318.319305,464.246857 
	C314.057251,468.976837 310.110168,473.990662 306.023010,478.878296 
z"/>
<path fill="#BFBFBF" opacity="1.000000" stroke="none" 
	d="
M306.477814,478.918549 
	C310.110168,473.990662 314.057251,468.976837 318.319305,464.246857 
	C323.846436,458.112976 329.658173,452.236267 335.257660,446.166077 
	C336.087463,445.266541 336.425140,443.913086 337.232544,442.142426 
	C343.947479,438.211243 350.420288,434.907257 356.893127,431.603241 
	C356.395416,433.098358 356.306976,434.966980 355.336365,436.030579 
	C346.201080,446.041321 336.867737,455.871063 327.696106,465.849152 
	C324.025909,469.842041 320.616180,474.074310 317.054871,478.529846 
	C313.658722,478.894318 310.295654,478.926575 306.477814,478.918549 
z"/>
<path fill="#6C6C6C" opacity="1.000000" stroke="none" 
	d="
M413.444763,478.898102 
	C415.840668,475.224335 418.496490,471.460693 421.539886,468.042084 
	C426.503693,462.466339 431.748535,457.141876 436.824768,451.664978 
	C449.000732,438.527893 461.118164,425.336334 473.350037,412.251678 
	C474.630585,410.881836 476.518341,410.079651 478.480530,409.011902 
	C478.884827,411.054749 478.932983,413.099792 478.574860,415.616180 
	C476.775299,417.228821 475.235504,418.232330 474.012177,419.533386 
	C464.832062,429.296906 455.746796,439.149597 446.566437,448.912903 
	C439.646454,456.272308 432.546692,463.464264 425.704285,470.894043 
	C423.514648,473.271729 421.892426,476.171906 420.010620,478.833008 
	C417.966675,478.876404 415.922699,478.919769 413.444763,478.898102 
z"/>
<path fill="#C7C7C7" opacity="1.000000" stroke="none" 
	d="
M478.929016,293.557007 
	C473.958374,298.606384 468.897919,303.052277 464.152863,307.812500 
	C459.711731,312.267822 455.713531,317.165131 451.263336,321.610596 
	C450.319061,322.553864 448.262054,322.383240 446.408813,322.547607 
	C446.417450,321.900543 446.735046,321.431763 447.345154,320.943054 
	C447.960968,320.617004 448.284271,320.310913 448.607574,320.004822 
	C448.130768,319.659973 447.653961,319.315155 447.292847,318.696289 
	C447.985992,316.316711 448.563416,314.211182 449.420410,311.867126 
	C450.814117,308.429962 451.928314,305.231323 453.314789,301.963379 
	C453.804382,301.593079 454.021667,301.292084 454.589386,300.986237 
	C458.984528,297.271515 463.028107,293.560425 467.074219,289.852112 
	C471.013733,286.241547 474.955841,282.633881 478.896790,279.024902 
	C478.923492,283.713501 478.950195,288.402100 478.929016,293.557007 
z"/>
<path fill="#D6D6D6" opacity="1.000000" stroke="none" 
	d="
M478.932953,249.026672 
	C478.948944,255.044296 478.964905,261.061920 478.615295,267.579102 
	C475.177795,271.028839 472.190491,274.073883 469.013214,276.905823 
	C464.782745,280.676422 460.404419,284.281097 456.096893,287.593292 
	C456.492249,283.861511 456.880341,280.493469 457.430542,276.851196 
	C457.757050,274.399414 457.921387,272.221893 458.420349,269.935730 
	C459.171570,268.217621 459.588226,266.608093 460.370880,264.995697 
	C463.184662,262.942444 465.676666,260.942230 468.069885,258.830109 
	C471.726715,255.602875 475.315369,252.298370 478.932953,249.026672 
z"/>
<path fill="#636363" opacity="1.000000" stroke="none" 
	d="
M420.444580,478.898987 
	C421.892426,476.171906 423.514648,473.271729 425.704285,470.894043 
	C432.546692,463.464264 439.646454,456.272308 446.566437,448.912903 
	C455.746796,439.149597 464.832062,429.296906 474.012177,419.533386 
	C475.235504,418.232330 476.775299,417.228821 478.501801,416.049133 
	C478.884949,418.056091 478.934875,420.101471 478.576538,422.617493 
	C473.783417,427.554077 469.336761,431.961304 465.025574,436.497314 
	C453.501617,448.622192 441.995941,460.765137 430.594482,473.004791 
	C429.070282,474.641052 428.190308,476.877472 427.011963,478.835968 
	C424.967499,478.878967 422.923035,478.921967 420.444580,478.898987 
z"/>
<path fill="#E8E8E8" opacity="1.000000" stroke="none" 
	d="
M459.637268,234.046265 
	C463.119476,230.968399 466.632507,227.924500 470.074158,224.801971 
	C472.861298,222.273315 475.562592,219.650085 478.646118,217.039917 
	C478.991791,223.365265 478.993256,229.719452 478.617310,236.542221 
	C476.491669,238.344177 474.638702,239.561981 473.015564,241.033310 
	C468.681610,244.961929 464.446350,248.999451 460.099304,252.555069 
	C459.643768,248.764465 459.260773,245.412491 458.877777,242.060501 
	C458.661407,239.973953 458.445068,237.887405 458.413727,235.449249 
	C458.944916,234.747192 459.291107,234.396729 459.637268,234.046265 
z"/>
<path fill="#D6D6D6" opacity="1.000000" stroke="none" 
	d="
M282.016693,478.922119 
	C277.328705,478.938568 272.640747,478.954987 267.516357,478.610107 
	C270.694366,474.024658 274.443390,469.906097 277.871216,465.535583 
	C279.835754,463.030823 281.278595,460.116913 283.185883,457.084900 
	C287.638794,455.850555 291.862152,454.918518 296.276611,453.893646 
	C296.705872,453.631165 296.876160,453.409424 297.271484,453.183716 
	C298.699249,453.182434 299.834076,453.132904 300.974335,453.462830 
	C298.955078,457.092285 297.186371,460.541229 294.849243,463.548431 
	C290.755554,468.815857 286.313049,473.812195 282.016693,478.922119 
z"/>
<path fill="#595959" opacity="1.000000" stroke="none" 
	d="
M427.437073,478.902222 
	C428.190308,476.877472 429.070282,474.641052 430.594482,473.004791 
	C441.995941,460.765137 453.501617,448.622192 465.025574,436.497314 
	C469.336761,431.961304 473.783417,427.554077 478.501709,423.050232 
	C478.886597,425.057648 478.938049,427.102966 478.913574,429.580963 
	C475.964905,432.443146 472.844788,434.637024 470.264557,437.345276 
	C461.674774,446.361328 453.234863,455.521790 444.827637,464.709412 
	C440.809906,469.100067 436.995148,473.676453 433.051147,478.502563 
	C431.296600,478.880432 429.579407,478.924469 427.437073,478.902222 
z"/>
<path fill="#E0E0E0" opacity="1.000000" stroke="none" 
	d="
M282.956299,457.387207 
	C281.278595,460.116913 279.835754,463.030823 277.871216,465.535583 
	C274.443390,469.906097 270.694366,474.024658 267.051880,478.595123 
	C261.997711,478.954987 256.971649,478.968536 251.478882,478.611084 
	C254.668503,473.666473 258.445465,469.181976 261.921082,464.474945 
	C263.289764,462.621338 263.985840,460.271057 265.428314,458.096497 
	C269.300873,458.163910 272.733368,458.281830 276.395325,458.599762 
	C277.765137,458.283081 278.905426,457.766388 280.412048,457.204742 
	C281.504395,457.235596 282.230347,457.311401 282.956299,457.387207 
z"/>
<path fill="#D0D0D0" opacity="1.000000" stroke="none" 
	d="
M282.472717,478.948792 
	C286.313049,473.812195 290.755554,468.815857 294.849243,463.548431 
	C297.186371,460.541229 298.955078,457.092285 301.129700,453.182190 
	C303.546509,451.974060 305.813446,451.426025 308.385101,450.984192 
	C310.100433,451.001556 311.511017,450.912659 313.158783,450.849854 
	C313.746765,450.798035 313.960999,450.583679 314.277374,450.222931 
	C314.516144,450.213043 314.990814,450.269073 314.990814,450.269073 
	C314.066833,452.273132 313.553406,454.644501 312.146820,456.216797 
	C306.498718,462.530060 300.541656,468.565948 294.787598,474.786499 
	C293.950043,475.692047 293.594360,477.043335 293.018616,478.543335 
	C289.657257,478.924042 286.292999,478.949738 282.472717,478.948792 
z"/>
<path fill="#010101" opacity="1.000000" stroke="none" 
	d="
M478.865234,455.020782 
	C478.865234,462.887817 478.865234,470.754852 478.865234,478.985504 
	C471.716034,478.985504 464.832123,478.985504 457.493469,478.579498 
	C463.985657,470.492004 470.929321,462.807465 477.900055,455.147552 
	C478.066864,454.964325 478.536713,455.056854 478.865234,455.020782 
z"/>
<path fill="#D0D0D0" opacity="1.000000" stroke="none" 
	d="
M456.089600,287.957062 
	C460.404419,284.281097 464.782745,280.676422 469.013214,276.905823 
	C472.190491,274.073883 475.177795,271.028839 478.586487,268.047607 
	C478.942200,271.379883 478.961090,274.743195 478.938354,278.565735 
	C474.955841,282.633881 471.013733,286.241547 467.074219,289.852112 
	C463.028107,293.560425 458.984528,297.271515 454.559753,300.701599 
	C454.214355,300.041779 454.249054,299.661774 454.495789,299.136810 
	C454.484436,298.652222 454.261047,298.312561 454.030640,297.859497 
	C454.023590,297.746033 454.004364,297.519501 454.028564,297.208008 
	C454.731689,293.916687 455.410645,290.936859 456.089600,287.957062 
z"/>
<path fill="#E8E8E8" opacity="1.000000" stroke="none" 
	d="
M264.988220,458.146973 
	C263.985840,460.271057 263.289764,462.621338 261.921082,464.474945 
	C258.445465,469.181976 254.668503,473.666473 251.012970,478.601624 
	C246.986099,478.973938 242.958496,478.984741 238.468292,478.995331 
	C238.977798,477.186249 239.700287,475.175323 240.969757,473.607147 
	C244.491608,469.256653 248.241180,465.090515 252.367737,460.431946 
	C255.544739,459.368805 258.254822,458.725220 261.367218,458.054932 
	C262.842438,458.067810 263.915314,458.107391 264.988220,458.146973 
z"/>
<path fill="#372639" opacity="1.000000" stroke="none" 
	d="
M444.465515,478.922516 
	C446.719971,475.369354 449.153687,471.640472 452.141083,468.426208 
	C460.707642,459.209320 469.498505,450.200958 478.529846,441.072662 
	C478.912506,443.398254 478.966492,445.761810 478.608337,448.592834 
	C470.830872,456.622192 463.398346,464.120453 456.144318,471.787567 
	C454.155365,473.889832 452.700897,476.497803 451.001160,478.873688 
	C448.966675,478.909729 446.932159,478.945801 444.465515,478.922516 
z"/>
<path fill="#E0E0E0" opacity="1.000000" stroke="none" 
	d="
M460.171844,252.993683 
	C464.446350,248.999451 468.681610,244.961929 473.015564,241.033310 
	C474.638702,239.561981 476.491669,238.344177 478.604553,237.011200 
	C478.975250,240.707977 478.981293,244.404373 478.960144,248.563721 
	C475.315369,252.298370 471.726715,255.602875 468.069885,258.830109 
	C465.676666,260.942230 463.184662,262.942444 460.310913,264.558044 
	C459.866638,262.068909 459.848358,260.014557 459.886658,257.548096 
	C460.019470,255.755219 460.095642,254.374451 460.171844,252.993683 
z"/>
<path fill="#291E26" opacity="1.000000" stroke="none" 
	d="
M245.012726,459.842468 
	C237.610901,459.272156 230.209091,458.701813 222.398346,458.178040 
	C195.435349,454.296722 170.450836,445.771332 147.043274,432.273438 
	C151.117020,433.602661 155.186890,435.296417 159.804352,437.355652 
	C167.201721,440.493073 173.962296,443.515747 180.918076,445.989594 
	C201.325836,453.247711 222.437607,457.014191 244.138412,458.349426 
	C244.492477,458.999969 244.752594,459.421204 245.012726,459.842468 
z"/>
<path fill="#291E26" opacity="1.000000" stroke="none" 
	d="
M459.466614,233.671295 
	C459.291107,234.396729 458.944916,234.747192 458.429810,234.977921 
	C457.529877,231.115295 456.771942,227.377365 456.079102,223.627441 
	C455.721161,221.690262 455.478821,219.731750 455.076050,216.987122 
	C451.315765,202.671677 447.688171,189.145203 443.961304,175.646149 
	C443.688812,174.659241 442.697754,173.870712 442.040771,172.989960 
	C438.751678,165.364441 435.459473,157.740234 432.178833,150.111099 
	C431.885193,149.428253 431.666321,148.713242 431.725525,147.861877 
	C433.091797,149.136047 434.330688,150.460571 435.170319,152.002502 
	C444.310394,168.787125 450.885284,186.539734 455.124329,205.589188 
	C456.563141,215.092270 457.929535,224.194275 459.466614,233.671295 
z"/>
<path fill="#291E26" opacity="1.000000" stroke="none" 
	d="
M451.427948,478.941498 
	C452.700897,476.497803 454.155365,473.889832 456.144318,471.787567 
	C463.398346,464.120453 470.830872,456.622192 478.534576,449.030701 
	C478.928070,450.725739 478.983093,452.450378 478.951691,454.597900 
	C478.536713,455.056854 478.066864,454.964325 477.900055,455.147552 
	C470.929321,462.807465 463.985657,470.492004 457.029297,478.521301 
	C455.298218,478.915863 453.576477,478.962585 451.427948,478.941498 
z"/>
<path fill="#372639" opacity="1.000000" stroke="none" 
	d="
M94.638870,110.670486 
	C94.241325,111.640106 93.557808,112.418007 92.807312,113.275681 
	C93.277855,112.396561 93.815369,111.437653 94.638870,110.670486 
z"/>
<path fill="#372639" opacity="1.000000" stroke="none" 
	d="
M96.611053,108.065636 
	C96.494247,108.924599 96.049805,109.907516 95.231201,110.922729 
	C95.332504,110.033218 95.807961,109.111397 96.611053,108.065636 
z"/>
<path fill="#372639" opacity="1.000000" stroke="none" 
	d="
M111.625908,94.191498 
	C111.479645,94.784500 110.964493,95.368477 110.153656,95.947388 
	C110.324318,95.355705 110.790665,94.769089 111.625908,94.191498 
z"/>
<path fill="#372639" opacity="1.000000" stroke="none" 
	d="
M109.989433,96.649048 
	C109.471283,97.117043 108.982117,97.318237 108.219498,97.227203 
	C108.415298,96.424530 108.884544,95.914101 109.640999,95.628403 
	C109.958267,96.029495 109.988342,96.205872 109.989433,96.649048 
z"/>
<path fill="#372639" opacity="1.000000" stroke="none" 
	d="
M103.661873,100.939507 
	C103.846642,101.330147 103.741447,101.743462 103.276184,102.055267 
	C103.068054,101.623230 103.219986,101.292702 103.661873,100.939507 
z"/>
<path fill="#372639" opacity="1.000000" stroke="none" 
	d="
M102.663422,101.938560 
	C102.846176,102.329575 102.738571,102.743042 102.273575,103.055099 
	C102.068481,102.622803 102.220779,102.291901 102.663422,101.938560 
z"/>
<path fill="#372639" opacity="1.000000" stroke="none" 
	d="
M101.663864,102.939163 
	C101.846642,103.331566 101.739616,103.746933 101.274612,104.058289 
	C101.069115,103.623566 101.221596,103.292839 101.663864,102.939163 
z"/>
<path fill="#372639" opacity="1.000000" stroke="none" 
	d="
M100.667053,103.942444 
	C100.848137,104.337212 100.741524,104.757965 100.276291,105.065704 
	C100.071564,104.624619 100.225456,104.296524 100.667053,103.942444 
z"/>
<path fill="#372639" opacity="1.000000" stroke="none" 
	d="
M104.667549,99.945023 
	C104.849594,100.335297 104.743721,100.753197 104.277382,101.061432 
	C104.071152,100.625389 104.225395,100.299019 104.667549,99.945023 
z"/>
<path fill="#372639" opacity="1.000000" stroke="none" 
	d="
M105.669617,98.950058 
	C105.851608,99.334549 105.748940,99.750320 105.281761,100.061020 
	C105.073158,99.631065 105.229057,99.306190 105.669617,98.950058 
z"/>
<path fill="#372639" opacity="1.000000" stroke="none" 
	d="
M106.677483,97.962494 
	C106.859062,98.344543 106.760971,98.767342 106.290718,99.072510 
	C106.078308,98.637672 106.238060,98.320457 106.677483,97.962494 
z"/>
<path fill="#372639" opacity="1.000000" stroke="none" 
	d="
M99.666504,104.944977 
	C99.849960,105.340523 99.746925,105.763512 99.281097,106.070709 
	C99.072212,105.627411 99.226112,105.299911 99.666504,104.944977 
z"/>
<path fill="#372639" opacity="1.000000" stroke="none" 
	d="
M98.675705,105.953461 
	C98.853935,106.356224 98.752144,106.794418 98.286224,107.094818 
	C98.079956,106.634323 98.237816,106.311607 98.675705,105.953461 
z"/>
<path fill="#372639" opacity="1.000000" stroke="none" 
	d="
M107.692841,96.981270 
	C107.867302,97.354462 107.772446,97.784042 107.299278,98.086220 
	C107.088493,97.651756 107.256004,97.344711 107.692841,96.981270 
z"/>
<path fill="#372639" opacity="1.000000" stroke="none" 
	d="
M97.688766,106.973831 
	C97.862144,107.369247 97.765442,107.817253 97.296890,108.113266 
	C97.089592,107.649658 97.254135,107.338043 97.688766,106.973831 
z"/>
<path fill="#FEFCFE" opacity="1.000000" stroke="none" 
	d="
M122.130417,137.467102 
	C122.704155,124.970078 123.332901,112.939194 123.897484,100.451637 
	C123.732597,96.986244 124.840958,95.303879 128.186172,95.820976 
	C132.234909,96.446831 136.299377,96.970863 140.683655,98.174446 
	C146.291443,110.559006 151.572632,122.308067 156.980331,134.393127 
	C162.630295,146.859940 168.153748,158.990738 173.764496,171.483963 
	C180.647644,187.130737 187.443466,202.415070 194.839478,219.049286 
	C202.253738,202.212524 209.125870,186.606873 216.216354,170.724670 
	C221.899796,158.297287 227.364883,146.146454 233.020401,133.686844 
	C238.809280,120.919563 244.407715,108.461052 250.006134,96.002541 
	C255.128494,96.124802 260.250854,96.247063 265.598755,97.152557 
	C266.272217,109.955719 266.720093,121.975655 267.104492,134.454559 
	C267.507538,146.944412 267.974060,158.975296 268.344116,171.412827 
	C268.857574,185.546066 269.467499,199.272659 270.077393,212.999268 
	C270.077393,221.063705 270.077393,229.128143 270.077393,237.601486 
	C265.929199,237.601486 261.261292,237.601486 256.248047,237.601486 
	C255.859634,231.653244 255.475327,225.768066 255.071411,218.976410 
	C254.555588,205.713547 254.059372,193.357208 253.664337,180.573425 
	C253.069672,162.833557 252.373856,145.521118 251.619904,126.762619 
	C249.479538,131.372864 247.871384,134.738861 246.345062,138.141571 
	C240.106247,152.050125 233.892395,165.969879 227.435318,180.137100 
	C221.782806,192.560410 216.364319,204.732117 210.945831,216.903824 
	C208.202530,222.747711 205.347321,228.542755 202.766830,234.457687 
	C201.612228,237.104248 200.094437,238.439575 197.112350,238.044037 
	C195.478485,237.827301 193.759323,237.794662 192.136383,238.048370 
	C188.538467,238.610840 186.786026,236.986298 185.518051,233.745026 
	C183.464020,228.494446 180.970734,223.415710 178.348999,217.669281 
	C172.501022,204.841797 166.966949,192.609421 161.333984,180.052475 
	C153.816238,162.950287 146.397369,146.172684 138.978516,129.395065 
	C138.520767,129.476669 138.063004,129.558258 137.605240,129.639862 
	C136.883698,147.093521 136.162155,164.547165 135.332458,182.457306 
	C134.791016,194.942734 134.357742,206.971710 133.924469,219.000671 
	C133.487503,225.069382 133.050552,231.138092 132.584976,237.604187 
	C127.917946,237.604187 123.257782,237.604187 117.938866,237.604187 
	C118.281273,230.943893 118.616867,224.416061 118.892822,217.442810 
	C119.488716,202.948990 120.144264,188.900604 120.739586,174.423553 
	C121.181389,161.974350 121.683411,149.953796 122.130417,137.467102 
z"/>
<path fill="#FEFCFE" opacity="1.000000" stroke="none" 
	d="
M117.128860,360.465912 
	C117.109100,343.977234 117.146538,327.954498 117.126587,311.465881 
	C117.108276,295.643951 117.147354,280.287903 117.129700,264.465942 
	C117.072975,257.549835 117.072975,251.099640 117.072975,245.074219 
	C117.930321,244.456009 118.189774,244.105133 118.447800,244.106186 
	C140.653076,244.196411 162.950638,242.076584 184.956146,246.951233 
	C195.635483,249.316910 205.510254,253.412064 214.720459,260.523621 
	C226.480286,270.391907 232.116989,282.960083 235.038849,297.426697 
	C236.694870,310.282257 236.584854,322.669586 234.005798,335.361298 
	C230.548553,348.432983 224.104370,359.320923 214.661148,368.446808 
	C198.962128,381.145447 180.763229,386.137146 160.861145,386.023224 
	C146.572433,385.941406 132.282867,386.007263 117.186073,386.007263 
	C117.186073,377.434570 117.186073,369.183197 117.128860,360.465912 
M214.990555,342.186493 
	C220.503738,330.241608 221.017563,317.714722 219.306992,304.077637 
	C217.487930,287.137726 210.511688,273.090668 194.615906,265.652283 
	C186.794098,261.992065 177.931870,259.618469 169.334106,258.780823 
	C157.534348,257.631287 145.538589,258.493286 133.436996,258.493286 
	C133.436996,274.083344 133.436996,289.535889 133.226959,305.907745 
	C133.297058,317.935547 133.367157,329.963318 133.228241,342.910248 
	C133.228241,352.499512 133.228241,362.088806 133.228241,372.089539 
	C140.336166,372.089539 146.826965,372.457672 153.259933,372.004700 
	C163.324799,371.295959 173.569519,370.995667 183.341202,368.775574 
	C197.781265,365.494812 208.582352,356.776031 214.990555,342.186493 
z"/>
<path fill="#D964B3" opacity="1.000000" stroke="none" 
	d="
M441.569336,172.993011 
	C442.697754,173.870712 443.688812,174.659241 443.961304,175.646149 
	C447.688171,189.145203 451.315765,202.671677 454.934692,216.596542 
	C446.097168,217.028610 437.291138,216.967468 428.488953,217.122467 
	C424.541046,217.191971 420.596161,217.999481 416.657837,217.940796 
	C406.259369,217.785843 395.866516,217.147842 385.468903,217.077850 
	C378.446533,217.030579 371.422180,217.746048 364.394196,217.877014 
	C360.443085,217.950623 356.482941,217.526535 352.526550,217.333176 
	C350.212311,217.220062 347.897705,217.035583 345.582855,217.028854 
	C337.115234,217.004242 328.647461,217.046631 320.179749,217.051147 
	C317.106934,217.052780 314.034149,217.018936 310.503357,216.534164 
	C310.045380,201.800583 310.045380,187.534103 310.045380,172.771210 
	C312.430450,172.771210 314.222198,172.771225 316.013947,172.771210 
	C333.999084,172.771057 351.984314,172.792114 369.969299,172.737534 
	C371.745483,172.732147 373.520294,172.263840 375.295746,172.010391 
	C378.581696,172.340378 381.872192,172.985245 385.152740,172.938019 
	C393.187469,172.822388 401.218506,172.119431 409.249359,172.146912 
	C419.866364,172.183228 430.481781,172.690964 441.569336,172.993011 
z"/>
<path fill="#FEFDFE" opacity="1.000000" stroke="none" 
	d="
M354.957397,371.984192 
	C335.577148,390.598907 312.752533,390.720886 288.876526,383.905426 
	C281.070679,381.677216 274.540985,376.945465 269.153046,369.860107 
	C261.536621,359.410522 259.623932,347.740295 257.988464,335.533630 
	C257.977112,322.045349 257.906891,309.022614 257.897034,295.534821 
	C257.916870,282.712585 257.876282,270.355438 257.835663,257.998291 
	C257.835663,253.548050 257.835663,249.097794 257.835663,243.883865 
	C262.897369,243.883865 267.474731,243.681976 272.000549,244.074463 
	C272.792694,244.143158 273.368225,246.709427 274.042847,249.026093 
	C274.083832,258.952698 274.125793,267.975433 274.105133,277.463440 
	C274.083893,288.618652 274.125275,299.308594 274.104370,310.463806 
	C274.786133,322.617432 275.530182,334.305817 276.324402,346.348816 
	C281.227875,365.970917 293.871246,373.118835 313.791748,373.090088 
	C334.258850,373.060547 346.304993,364.443573 351.854248,345.602417 
	C355.303467,334.014160 355.412872,322.532745 354.987671,310.534790 
	C355.008148,298.713043 354.965759,287.356384 354.986572,275.534668 
	C354.977600,266.379578 354.905426,257.689514 354.833252,248.999466 
	C354.956451,247.539536 355.079681,246.079605 355.254486,244.008469 
	C359.647980,244.008469 364.016541,244.063599 368.382965,243.990494 
	C371.693604,243.935043 370.691833,246.392349 370.948486,249.035645 
	C370.990540,258.620056 371.033569,267.309875 371.011871,276.464783 
	C371.020294,287.620087 371.093445,298.310333 371.105164,309.465454 
	C370.382111,320.620209 369.720520,331.310120 368.940063,342.366882 
	C366.283234,353.471313 362.285797,363.517151 354.957397,371.984192 
z"/>
<path fill="#FEFCFE" opacity="1.000000" stroke="none" 
	d="
M375.246643,171.545563 
	C373.520294,172.263840 371.745483,172.732147 369.969299,172.737534 
	C351.984314,172.792114 333.999084,172.771057 316.013947,172.771210 
	C314.222198,172.771225 312.430450,172.771210 310.045380,172.771210 
	C310.045380,187.534103 310.045380,201.800583 310.106293,216.532166 
	C310.167206,219.439453 310.167206,221.881638 310.167206,224.848053 
	C333.470856,224.848053 356.365601,224.848053 379.647430,224.848053 
	C379.300354,229.293533 378.996307,233.188171 378.656342,237.542847 
	C350.743195,237.542847 322.882172,237.542847 294.195038,237.542847 
	C294.195038,230.117020 294.195038,222.525192 294.191895,214.001831 
	C294.150818,199.048431 294.112915,185.026566 294.133759,170.538452 
	C294.153290,157.715530 294.114105,145.358841 294.136230,132.536438 
	C294.156158,120.381439 294.114777,108.692162 294.073425,97.002899 
	C295.605896,96.613083 297.137360,95.887970 298.670959,95.883545 
	C323.298462,95.812576 347.926270,95.837914 372.553986,95.826233 
	C374.895874,95.825127 377.492371,95.375504 377.106445,99.560181 
	C377.167999,102.801125 377.167999,105.607323 377.167999,109.068390 
	C354.613373,109.068390 332.578705,109.068390 310.042633,109.068390 
	C310.042633,117.503586 310.042633,125.286339 310.104767,133.534225 
	C310.166901,142.104889 310.166901,150.210403 310.166901,158.843597 
	C331.726868,158.843597 353.059998,158.843597 375.197510,158.843597 
	C375.197510,163.258423 375.197510,167.169586 375.246643,171.545563 
z"/>
<path fill="#D065BD" opacity="1.000000" stroke="none" 
	d="
M371.076599,275.999695 
	C371.033569,267.309875 370.990540,258.620056 371.011658,249.465118 
	C399.682098,250.367081 428.332581,247.941849 457.452209,250.439423 
	C458.016296,253.254059 458.058990,255.629272 457.921021,258.356079 
	C457.855499,262.486542 457.970612,266.265472 458.085754,270.044373 
	C457.921387,272.221893 457.757050,274.399414 456.951172,276.809204 
	C448.411743,277.027649 440.512909,277.085754 432.616150,276.983124 
	C420.754272,276.828979 408.894135,276.545288 397.032715,276.348877 
	C388.381134,276.205627 379.728668,276.114227 371.076599,275.999695 
z"/>
<path fill="#D065BD" opacity="1.000000" stroke="none" 
	d="
M354.398529,248.999680 
	C354.905426,257.689514 354.977600,266.379578 354.529236,275.534821 
	C338.068024,276.000000 322.126129,275.878906 306.187164,276.042419 
	C295.511871,276.151947 284.840759,276.665436 274.167755,276.998169 
	C274.125793,267.975433 274.083832,258.952698 274.104034,249.464737 
	C300.765381,248.999634 327.364594,248.999771 354.398529,248.999680 
z"/>
<path fill="#D965B4" opacity="1.000000" stroke="none" 
	d="
M253.563156,181.000854 
	C254.059372,193.357208 254.555588,205.713547 254.988403,218.534607 
	C242.233414,218.999542 229.541306,219.055313 216.850800,218.938324 
	C215.009766,218.921371 213.176361,218.076904 211.142639,217.259583 
	C216.364319,204.732117 221.782806,192.560410 227.886093,180.178558 
	C236.901642,180.312576 245.232407,180.656708 253.563156,181.000854 
z"/>
<path fill="#D965B4" opacity="1.000000" stroke="none" 
	d="
M161.432877,180.377060 
	C166.966949,192.609421 172.501022,204.841797 178.091110,217.424927 
	C177.123474,218.182663 176.105316,218.925293 175.075287,218.942139 
	C168.399033,219.051392 161.720200,219.004425 155.042206,219.005005 
	C148.300644,219.005585 141.559067,219.001968 134.370987,219.000427 
	C134.357742,206.971710 134.791016,194.942734 135.735260,182.455750 
	C137.241470,182.000732 138.236694,182.009064 139.231903,182.005875 
	C145.842621,181.984711 152.454498,182.013687 159.062576,181.869720 
	C159.863129,181.852264 160.643280,180.897446 161.432877,180.377060 
z"/>
<path fill="#CD66C1" opacity="1.000000" stroke="none" 
	d="
M257.379333,257.998993 
	C257.876282,270.355438 257.916870,282.712585 257.475098,295.535339 
	C249.687103,296.334320 242.381516,296.667725 235.075912,297.001099 
	C232.116989,282.960083 226.480286,270.391907 215.046661,260.657410 
	C216.385895,259.601196 217.894928,258.129517 219.425827,258.106415 
	C231.922577,257.917908 244.423386,257.999939 257.379333,257.998993 
z"/>
<path fill="#D964B3" opacity="1.000000" stroke="none" 
	d="
M294.075043,171.004715 
	C294.112915,185.026566 294.150818,199.048431 294.131073,213.536346 
	C286.352539,213.675568 278.631653,213.348740 270.494080,213.010590 
	C269.467499,199.272659 268.857574,185.546066 268.777100,171.410034 
	C271.270813,171.000626 273.235046,171.000290 275.199310,171.000671 
	C281.491211,171.001877 287.783142,171.003342 294.075043,171.004715 
z"/>
<path fill="#010101" opacity="1.000000" stroke="none" 
	d="
M458.101685,258.004486 
	C458.058990,255.629272 458.016296,253.254059 457.902039,250.439224 
	C457.944519,247.490189 458.058594,244.980789 458.525208,242.265930 
	C459.260773,245.412491 459.643768,248.764465 460.099304,252.555069 
	C460.095642,254.374451 460.019470,255.755219 459.598633,257.555756 
	C458.869873,257.985168 458.485779,257.994812 458.101685,258.004486 
z"/>
<path fill="#E562A6" opacity="1.000000" stroke="none" 
	d="
M156.853821,134.057129 
	C151.572632,122.308067 146.291443,110.559006 140.978943,98.450394 
	C142.659180,97.727226 144.369232,97.055962 146.082489,97.047729 
	C162.639252,96.968163 179.196564,97.000000 195.753708,97.000000 
	C207.589600,97.000000 219.426880,97.106682 231.260818,96.955154 
	C237.212051,96.878960 243.157257,96.333633 249.555664,96.001495 
	C244.407715,108.461052 238.809280,120.919563 232.588867,133.688080 
	C206.929199,134.017776 181.891510,134.037445 156.853821,134.057129 
z"/>
<path fill="#E562A6" opacity="1.000000" stroke="none" 
	d="
M293.632843,97.002029 
	C294.114777,108.692162 294.156158,120.381439 293.706329,132.544739 
	C284.532715,133.344376 275.850342,133.669983 267.167969,133.995590 
	C266.720093,121.975655 266.272217,109.955719 265.875122,97.469452 
	C275.014679,97.002472 284.103485,97.001816 293.632843,97.002029 
z"/>
<path fill="#C266CC" opacity="1.000000" stroke="none" 
	d="
M355.374786,371.990479 
	C362.285797,363.517151 366.283234,353.471313 369.334839,342.358948 
	C377.870789,341.822266 385.893372,341.515533 393.915222,341.533417 
	C405.137054,341.558411 416.359985,341.757782 427.578522,342.038483 
	C430.244019,342.105194 432.894012,342.791016 435.398499,343.526611 
	C433.410889,347.143738 431.517395,350.395264 429.755859,353.716797 
	C427.584381,357.811279 425.522827,361.964081 423.413757,366.091705 
	C422.646942,367.457916 421.880096,368.824127 421.062927,370.577087 
	C420.214905,371.581024 419.417206,372.198273 418.354309,372.965668 
	C412.240417,372.743958 406.391296,372.063293 400.542999,372.070251 
	C390.987976,372.081635 381.434509,372.684296 371.878296,372.755432 
	C366.518433,372.795319 361.154358,372.268372 355.374786,371.990479 
z"/>
<path fill="#C266CC" opacity="1.000000" stroke="none" 
	d="
M257.929535,335.999176 
	C259.623932,347.740295 261.536621,359.410522 268.873932,369.680084 
	C256.276428,370.276062 243.568909,370.733704 230.861649,370.726379 
	C225.617935,370.723358 220.374786,369.721924 214.896271,368.810669 
	C224.104370,359.320923 230.548553,348.432983 234.462082,335.360962 
	C242.666702,335.333435 250.298111,335.666290 257.929535,335.999176 
z"/>
<path fill="#372639" opacity="1.000000" stroke="none" 
	d="
M385.159210,411.651062 
	C383.326324,412.534973 381.653595,413.127533 379.642120,413.731445 
	C384.171417,409.055389 389.039429,404.368011 394.072418,399.380554 
	C399.207520,394.733215 404.177643,390.385956 409.327148,385.828339 
	C408.236115,387.678925 407.300690,390.074219 405.636261,391.741913 
	C398.987122,398.404144 392.111298,404.840088 385.159210,411.651062 
z"/>
<path fill="#B8B8B8" opacity="1.000000" stroke="none" 
	d="
M416.741577,377.093231 
	C417.496735,377.402222 418.028809,377.810272 418.560883,378.218353 
	C417.876862,378.212982 417.192871,378.207611 416.227173,378.085327 
	C416.053833,377.648621 416.244843,377.389923 416.741577,377.093231 
z"/>
<path fill="#372639" opacity="1.000000" stroke="none" 
	d="
M357.123230,431.373718 
	C350.420288,434.907257 343.947479,438.211243 337.236176,441.779846 
	C335.569092,442.350891 334.140442,442.657318 332.384979,442.623718 
	C335.045135,440.192108 338.032135,438.100494 341.019135,436.008881 
	C348.743439,431.825653 356.489014,427.680939 364.177429,423.432770 
	C366.152649,422.341370 367.947723,420.923920 370.024048,419.366486 
	C371.157043,418.825806 372.091583,418.574890 373.300903,418.233337 
	C372.705841,419.546112 372.149475,421.388977 370.909515,422.273621 
	C366.516998,425.407379 361.890930,428.213776 357.123230,431.373718 
z"/>
<path fill="#B664D6" opacity="1.000000" stroke="none" 
	d="
M340.666199,435.851105 
	C338.032135,438.100494 335.045135,440.192108 332.015198,442.656555 
	C331.972260,443.029388 331.996826,442.976929 331.675537,442.871063 
	C330.291016,442.811218 329.227722,442.857208 327.891632,442.969147 
	C327.579742,443.368500 327.540680,443.701904 327.501648,444.035278 
	C325.349731,444.888794 323.197815,445.742279 320.511169,446.762543 
	C319.312866,446.787750 318.649384,446.646210 317.653015,446.630798 
	C316.859741,446.869446 316.399323,446.981995 315.754425,447.072571 
	C315.296051,447.086761 315.113342,447.235199 314.654480,447.625793 
	C312.218170,448.796478 310.149261,449.837250 308.080353,450.877991 
	C305.813446,451.426025 303.546509,451.974060 301.124268,452.802734 
	C299.834076,453.132904 298.699249,453.182434 297.045837,453.224731 
	C296.241516,453.394196 296.094269,453.650513 296.085480,453.986450 
	C291.862152,454.918518 287.638794,455.850555 283.185883,457.084900 
	C282.230347,457.311401 281.504395,457.235596 280.041840,457.149506 
	C278.258759,457.559387 277.212280,457.979553 276.165833,458.399719 
	C272.733368,458.281830 269.300873,458.163910 265.428314,458.096497 
	C263.915314,458.107391 262.842438,458.067810 260.903320,458.007965 
	C254.706253,458.031830 249.375351,458.075958 244.044464,458.120117 
	C222.437607,457.014191 201.325836,453.247711 180.918076,445.989594 
	C173.962296,443.515747 167.201721,440.493073 160.154892,437.431122 
	C161.263382,436.111938 162.566330,434.205017 163.874908,434.201141 
	C170.565262,434.181335 177.265533,435.015564 183.946213,434.859772 
	C192.240906,434.666351 200.517334,433.754089 208.808151,433.262085 
	C210.078293,433.186768 211.381958,433.902924 212.672607,433.912262 
	C225.320526,434.003876 237.969009,434.015289 250.617218,434.074890 
	C251.935379,434.081116 253.298508,434.066742 254.562027,434.379730 
	C258.589691,435.377563 262.430908,435.022949 266.601257,434.584473 
	C275.717316,433.626007 285.000153,434.244324 294.214844,434.235504 
	C302.384247,434.227692 310.559174,434.057831 318.721344,434.303314 
	C325.926086,434.520050 333.116547,435.211487 340.666199,435.851105 
z"/>
<path fill="#010101" opacity="1.000000" stroke="none" 
	d="
M244.138412,458.349426 
	C249.375351,458.075958 254.706253,458.031830 260.501038,458.034668 
	C258.254822,458.725220 255.544739,459.368805 252.411713,460.095154 
	C249.951797,460.109924 247.914795,460.041931 245.445267,459.908203 
	C244.752594,459.421204 244.492477,458.999969 244.138412,458.349426 
z"/>
<path fill="#372639" opacity="1.000000" stroke="none" 
	d="
M423.703247,366.197449 
	C425.522827,361.964081 427.584381,357.811279 429.755859,353.716797 
	C431.517395,350.395264 433.410889,347.143738 435.570068,343.244507 
	C437.916199,339.119812 439.938141,335.611725 441.960144,332.103668 
	C441.463898,334.450317 441.116913,336.841980 440.426758,339.130127 
	C439.816803,341.152588 438.824554,343.059692 437.927063,345.360718 
	C434.376801,351.600616 430.970551,357.540833 427.367310,363.359100 
	C426.616211,364.571899 425.136658,365.333588 423.703247,366.197449 
z"/>
<path fill="#C665C8" opacity="1.000000" stroke="none" 
	d="
M442.210876,332.067078 
	C439.938141,335.611725 437.916199,339.119812 435.722687,342.909973 
	C432.894012,342.791016 430.244019,342.105194 427.578522,342.038483 
	C416.359985,341.757782 405.137054,341.558411 393.915222,341.533417 
	C385.893372,341.515533 377.870789,341.822266 369.453735,341.992065 
	C369.720520,331.310120 370.382111,320.620209 371.533936,309.465210 
	C375.456635,308.966858 378.893097,308.811584 382.320770,308.924225 
	C391.254791,309.217651 400.185364,309.928528 409.116577,309.916595 
	C420.317291,309.901642 431.517090,309.162659 442.717743,309.150970 
	C444.857758,309.148743 446.999786,311.071167 449.140869,312.105621 
	C448.563416,314.211182 447.985992,316.316711 447.250610,319.027405 
	C447.079376,320.076019 447.066040,320.519501 447.052673,320.963013 
	C446.735046,321.431763 446.417450,321.900543 446.135437,322.669800 
	C445.603699,324.328857 445.036438,325.687439 443.946350,327.200073 
	C443.263763,327.714417 443.104004,328.074707 442.653748,328.639343 
	C442.562836,329.879059 442.762421,330.914398 442.962036,331.949707 
	C442.795258,331.976624 442.628448,332.003540 442.210876,332.067078 
z"/>
<path fill="#4E4E4E" opacity="1.000000" stroke="none" 
	d="
M442.944214,328.434967 
	C443.104004,328.074707 443.263763,327.714417 443.731079,327.429749 
	C444.351746,328.194000 444.664795,328.882599 444.384888,329.678711 
	C443.509369,329.335815 443.226776,328.885376 442.944214,328.434967 
z"/>
<path fill="#291E26" opacity="1.000000" stroke="none" 
	d="
M442.653748,328.639343 
	C443.226776,328.885376 443.509369,329.335815 444.173676,329.930542 
	C444.250610,330.678802 443.945862,331.282745 443.301575,331.918213 
	C442.762421,330.914398 442.562836,329.879059 442.653748,328.639343 
z"/>
<path fill="#291E26" opacity="1.000000" stroke="none" 
	d="
M308.385101,450.984222 
	C310.149261,449.837250 312.218170,448.796478 314.836365,448.037048 
	C315.884644,448.633606 316.383606,448.948730 316.882599,449.263885 
	C316.472229,449.502991 316.061829,449.742065 315.321136,450.125122 
	C314.990814,450.269073 314.516144,450.213043 314.177094,450.022217 
	C313.532562,450.162201 313.227081,450.492981 312.921600,450.823792 
	C311.511017,450.912659 310.100433,451.001556 308.385101,450.984222 
z"/>
<path fill="#291E26" opacity="1.000000" stroke="none" 
	d="
M328.164459,442.903198 
	C329.227722,442.857208 330.291016,442.811218 331.703522,442.878967 
	C331.590668,443.427246 331.128571,443.861816 330.196442,444.026733 
	C329.205750,443.472473 328.685120,443.187836 328.164459,442.903198 
z"/>
<path fill="#4E4E4E" opacity="1.000000" stroke="none" 
	d="
M327.891632,442.969116 
	C328.685120,443.187836 329.205750,443.472473 329.887817,444.178772 
	C329.319122,444.590729 328.589020,444.580963 327.680298,444.303284 
	C327.540680,443.701904 327.579742,443.368500 327.891632,442.969116 
z"/>
<path fill="#595959" opacity="1.000000" stroke="none" 
	d="
M317.985870,446.504669 
	C318.649384,446.646210 319.312866,446.787750 320.261353,446.961975 
	C320.219727,447.571014 319.893127,448.147430 319.141296,448.486725 
	C318.472687,447.667969 318.229279,447.086304 317.985870,446.504669 
z"/>
<path fill="#291E26" opacity="1.000000" stroke="none" 
	d="
M317.653015,446.630798 
	C318.229279,447.086304 318.472687,447.667969 318.813049,448.552002 
	C318.460327,448.962799 318.010620,449.071259 317.153046,448.939453 
	C316.476410,448.164307 316.207642,447.629425 315.938873,447.094543 
	C316.399323,446.981995 316.859741,446.869446 317.653015,446.630798 
z"/>
<path fill="#595959" opacity="1.000000" stroke="none" 
	d="
M315.754425,447.072571 
	C316.207642,447.629425 316.476410,448.164307 316.810181,448.994690 
	C316.875183,449.290161 316.848999,449.255127 316.865784,449.259521 
	C316.383606,448.948730 315.884644,448.633606 315.203766,447.907196 
	C315.113342,447.235199 315.296051,447.086761 315.754425,447.072571 
z"/>
<path fill="#CB65C2" opacity="1.000000" stroke="none" 
	d="
M449.420410,311.867126 
	C446.999786,311.071167 444.857758,309.148743 442.717743,309.150970 
	C431.517090,309.162659 420.317291,309.901642 409.116577,309.916595 
	C400.185364,309.928528 391.254791,309.217651 382.320770,308.924225 
	C378.893097,308.811584 375.456635,308.966858 371.595398,309.000305 
	C371.093445,298.310333 371.020294,287.620087 371.011871,276.464783 
	C379.728668,276.114227 388.381134,276.205627 397.032715,276.348877 
	C408.894135,276.545288 420.754272,276.828979 432.616150,276.983124 
	C440.512909,277.085754 448.411743,277.027649 456.789032,277.083496 
	C456.880341,280.493469 456.492249,283.861511 456.096893,287.593292 
	C455.410645,290.936859 454.731689,293.916687 453.630890,297.176819 
	C453.153534,298.982361 453.098022,300.507507 453.042480,302.032684 
	C451.928314,305.231323 450.814117,308.429962 449.420410,311.867126 
z"/>
<path fill="#291E26" opacity="1.000000" stroke="none" 
	d="
M453.314819,301.963379 
	C453.098022,300.507507 453.153534,298.982361 453.606689,297.488342 
	C454.004364,297.519501 454.023590,297.746033 454.034149,298.197540 
	C454.124359,298.859955 454.204041,299.070831 454.283752,299.281738 
	C454.249054,299.661774 454.214355,300.041779 454.209320,300.706451 
	C454.021667,301.292084 453.804382,301.593079 453.314819,301.963379 
z"/>
<path fill="#BFBFBF" opacity="1.000000" stroke="none" 
	d="
M447.345154,320.943054 
	C447.066040,320.519501 447.079376,320.076019 447.134949,319.301392 
	C447.653961,319.315155 448.130768,319.659973 448.607574,320.004822 
	C448.284271,320.310913 447.960968,320.617004 447.345154,320.943054 
z"/>
<path fill="#372639" opacity="1.000000" stroke="none" 
	d="
M457.921021,258.356079 
	C458.485779,257.994812 458.869873,257.985168 459.541992,257.967834 
	C459.848358,260.014557 459.866638,262.068909 459.944885,264.560944 
	C459.588226,266.608093 459.171570,268.217621 458.420349,269.935730 
	C457.970612,266.265472 457.855499,262.486542 457.921021,258.356079 
z"/>
<path fill="#D0D0D0" opacity="1.000000" stroke="none" 
	d="
M296.276611,453.893616 
	C296.094269,453.650513 296.241516,453.394196 296.752930,453.176514 
	C296.876160,453.409424 296.705872,453.631165 296.276611,453.893616 
z"/>
<path fill="#D6D6D6" opacity="1.000000" stroke="none" 
	d="
M276.395325,458.599731 
	C277.212280,457.979553 278.258759,457.559387 279.675476,457.194458 
	C278.905426,457.766388 277.765137,458.283081 276.395325,458.599731 
z"/>
<path fill="#595959" opacity="1.000000" stroke="none" 
	d="
M313.158783,450.849854 
	C313.227081,450.492981 313.532562,450.162201 313.938324,450.032104 
	C313.960999,450.583679 313.746765,450.798035 313.158783,450.849854 
z"/>
<path fill="#595959" opacity="1.000000" stroke="none" 
	d="
M454.495789,299.136810 
	C454.204041,299.070831 454.124359,298.859955 454.041199,298.310974 
	C454.261047,298.312561 454.484436,298.652222 454.495789,299.136810 
z"/>
<path fill="#E064AC" opacity="1.000000" stroke="none" 
	d="
M156.980331,134.393127 
	C181.891510,134.037445 206.929199,134.017776 232.398422,133.996857 
	C227.364883,146.146454 221.899796,158.297287 215.748154,170.724457 
	C201.266785,171.041031 187.472000,171.081284 173.677200,171.121521 
	C168.153748,158.990738 162.630295,146.859940 156.980331,134.393127 
z"/>
<path fill="#D965B4" opacity="1.000000" stroke="none" 
	d="
M173.764496,171.483963 
	C187.472000,171.081284 201.266785,171.041031 215.529785,171.001007 
	C209.125870,186.606873 202.253738,202.212524 194.839478,219.049286 
	C187.443466,202.415070 180.647644,187.130737 173.764496,171.483963 
z"/>
<path fill="#E064AC" opacity="1.000000" stroke="none" 
	d="
M267.104492,134.454559 
	C275.850342,133.669983 284.532715,133.344376 293.645020,133.010468 
	C294.114105,145.358841 294.153290,157.715530 294.133759,170.538452 
	C287.783142,171.003342 281.491211,171.001877 275.199310,171.000671 
	C273.235046,171.000290 271.270813,171.000626 268.873566,171.003418 
	C267.974060,158.975296 267.507538,146.944412 267.104492,134.454559 
z"/>
<path fill="#E064AC" opacity="1.000000" stroke="none" 
	d="
M161.333984,180.052475 
	C160.643280,180.897446 159.863129,181.852264 159.062576,181.869720 
	C152.454498,182.013687 145.842621,181.984711 139.231903,182.005875 
	C138.236694,182.009064 137.241470,182.000732 135.843445,181.999283 
	C136.162155,164.547165 136.883698,147.093521 137.605240,129.639862 
	C138.063004,129.558258 138.520767,129.476669 138.978516,129.395065 
	C146.397369,146.172684 153.816238,162.950287 161.333984,180.052475 
z"/>
<path fill="#E064AC" opacity="1.000000" stroke="none" 
	d="
M253.664337,180.573425 
	C245.232407,180.656708 236.901642,180.312576 228.120117,179.926971 
	C233.892395,165.969879 240.106247,152.050125 246.345062,138.141571 
	C247.871384,134.738861 249.479538,131.372864 251.619904,126.762619 
	C252.373856,145.521118 253.069672,162.833557 253.664337,180.573425 
z"/>
<path fill="#CD66C1" opacity="1.000000" stroke="none" 
	d="
M133.436996,304.988434 
	C133.436996,289.535889 133.436996,274.083344 133.436996,258.493286 
	C145.538589,258.493286 157.534348,257.631287 169.334106,258.780823 
	C177.931870,259.618469 186.794098,261.992065 194.615906,265.652283 
	C210.511688,273.090668 217.487930,287.137726 218.835968,304.524292 
	C190.055618,304.976807 161.746307,304.982635 133.436996,304.988434 
z"/>
<path fill="#C766C7" opacity="1.000000" stroke="none" 
	d="
M133.331970,305.448090 
	C161.746307,304.982635 190.055618,304.976807 218.846130,304.951141 
	C221.017563,317.714722 220.503738,330.241608 214.491776,342.076843 
	C208.190491,341.644806 202.390289,341.105835 196.585007,341.043976 
	C183.465469,340.904175 170.342026,340.884369 157.222916,341.043121 
	C149.291687,341.139069 141.365631,341.660736 133.437241,341.991089 
	C133.367157,329.963318 133.297058,317.935547 133.331970,305.448090 
z"/>
<path fill="#C266CC" opacity="1.000000" stroke="none" 
	d="
M133.332733,342.450684 
	C141.365631,341.660736 149.291687,341.139069 157.222916,341.043121 
	C170.342026,340.884369 183.465469,340.904175 196.585007,341.043976 
	C202.390289,341.105835 208.190491,341.644806 214.260834,342.369232 
	C208.582352,356.776031 197.781265,365.494812 183.341202,368.775574 
	C173.569519,370.995667 163.324799,371.295959 153.259933,372.004700 
	C146.826965,372.457672 140.336166,372.089539 133.228241,372.089539 
	C133.228241,362.088806 133.228241,352.499512 133.332733,342.450684 
z"/>
<path fill="#C766C7" opacity="1.000000" stroke="none" 
	d="
M257.988464,335.533630 
	C250.298111,335.666290 242.666702,335.333435 234.579010,335.000916 
	C236.584854,322.669586 236.694870,310.282257 235.038849,297.426697 
	C242.381516,296.667725 249.687103,296.334320 257.414673,296.000427 
	C257.906891,309.022614 257.977112,322.045349 257.988464,335.533630 
z"/>
<path fill="#CB65C2" opacity="1.000000" stroke="none" 
	d="
M274.105133,277.463440 
	C284.840759,276.665436 295.511871,276.151947 306.187164,276.042419 
	C322.126129,275.878906 338.068024,276.000000 354.466003,275.999878 
	C354.965759,287.356384 355.008148,298.713043 354.525574,310.534851 
	C345.521637,309.997711 336.901672,313.003479 328.475891,310.107208 
	C327.916046,309.914764 327.179901,310.216736 326.528931,310.310822 
	C323.057892,310.812531 319.573425,311.834442 316.119965,311.737427 
	C302.130249,311.344482 288.150238,310.608185 274.166626,309.998535 
	C274.125275,299.308594 274.083893,288.618652 274.105133,277.463440 
z"/>
<path fill="#C665C8" opacity="1.000000" stroke="none" 
	d="
M274.104370,310.463806 
	C288.150238,310.608185 302.130249,311.344482 316.119965,311.737427 
	C319.573425,311.834442 323.057892,310.812531 326.528931,310.310822 
	C327.179901,310.216736 327.916046,309.914764 328.475891,310.107208 
	C336.901672,313.003479 345.521637,309.997711 354.462708,310.999939 
	C355.412872,322.532745 355.303467,334.014160 351.462036,345.538269 
	C348.832306,345.571777 346.721161,345.049164 344.607361,345.038239 
	C330.416534,344.964722 316.223877,344.883972 302.034485,345.043274 
	C293.445251,345.139709 284.860809,345.662811 276.274231,345.994202 
	C275.530182,334.305817 274.786133,322.617432 274.104370,310.463806 
z"/>
<path fill="#C266CC" opacity="1.000000" stroke="none" 
	d="
M276.324402,346.348816 
	C284.860809,345.662811 293.445251,345.139709 302.034485,345.043274 
	C316.223877,344.883972 330.416534,344.964722 344.607361,345.038239 
	C346.721161,345.049164 348.832306,345.571777 351.336914,345.921814 
	C346.304993,364.443573 334.258850,373.060547 313.791748,373.090088 
	C293.871246,373.118835 281.227875,365.970917 276.324402,346.348816 
z"/>
</svg>